<svg width="86" height="140" viewBox="0 0 86 140" fill="none" xmlns="http://www.w3.org/2000/svg">
<path d="M36.6092 47.4008C36.6092 57.5101 28.4139 65.7054 18.3046 65.7054C8.19524 65.7054 0 57.5101 0 47.4008C0 37.2914 8.19524 29.0962 18.3046 29.0962C28.4139 29.0962 36.6092 37.2914 36.6092 47.4008Z" fill="#171717"/>
<path fill-rule="evenodd" clip-rule="evenodd" d="M51.4629 60.2166C53.1997 56.0235 54.0936 51.5295 54.0936 46.991H72.3982C72.3982 53.9333 71.0308 60.8076 68.3741 67.2214C65.7174 73.6353 61.8234 79.463 56.9145 84.372C52.0055 89.2809 46.1778 93.1749 39.7639 95.8316C33.3501 98.4883 26.4757 99.8557 19.5334 99.8557L19.5334 81.5511C24.0719 81.5511 28.566 80.6572 32.759 78.9204C36.9521 77.1836 40.762 74.6379 43.9712 71.4287C47.1804 68.2195 49.7261 64.4096 51.4629 60.2166Z" fill="#FFD84E"/>
<path d="M71.7154 8.46929C71.7154 13.1467 67.9236 16.9386 63.2461 16.9386C58.5687 16.9386 54.7769 13.1467 54.7769 8.46929C54.7769 3.79183 58.5687 0 63.2461 0C67.9236 0 71.7154 3.79183 71.7154 8.46929Z" fill="#171717"/>
<path d="M71.716 137.284C71.716 138.567 70.6763 139.607 69.3938 139.607C68.1112 139.607 67.0715 138.567 67.0715 137.284C67.0715 136.002 68.1112 134.962 69.3938 134.962C70.6763 134.962 71.716 136.002 71.716 137.284Z" fill="#FFD84E"/>
<path d="M20.0848 126.493L21.7109 117.746H22.9436L25.2648 123.306L27.6908 117.746H28.9235L30.3922 126.493H28.6612L27.8744 121.103L25.527 126.493H24.95L22.7076 121.103L21.8159 126.493H20.0848Z" fill="#171717"/>
<path d="M33.3707 126.493V122.493L30.3676 117.746H32.3872L34.2624 120.788L36.1377 117.746H38.1572L35.0755 122.493V126.493H33.3707Z" fill="#171717"/>
<path d="M42.1863 117.746H44.7304C45.2724 117.746 45.7139 117.794 46.0548 117.89C46.4045 117.978 46.7324 118.153 47.0384 118.415C47.6329 118.939 47.9301 119.643 47.9301 120.526C47.9301 121.348 47.6897 121.999 47.2089 122.48C46.693 122.996 45.9543 123.254 44.9926 123.254H43.8911V126.493H42.1863V117.746ZM43.8911 119.215V121.785H44.5861C45.0844 121.785 45.456 121.693 45.7008 121.51C46.0155 121.265 46.1729 120.924 46.1729 120.487C46.1729 120.058 46.0111 119.726 45.6877 119.49C45.4254 119.307 45.0232 119.215 44.4812 119.215H43.8911Z" fill="#171717"/>
<path d="M49.1914 117.746H50.8962V125.024H53.5976V126.493H49.1914V117.746Z" fill="#171717"/>
<path d="M61.0103 126.493L60.2366 124.657H56.709L55.9353 126.493H54.0863L57.8499 117.746H59.1875L62.8463 126.493H61.0103ZM57.2467 123.267H59.7383L58.4925 120.12L57.2467 123.267Z" fill="#171717"/>
<path d="M65.5723 126.493H63.8675V117.746H65.0477L70.3719 123.582V117.746H72.0767V126.493H70.8965L65.5723 120.644V126.493Z" fill="#171717"/>
<path d="M78.9263 117.746V119.215H75.779V121.169H78.7951V122.638H75.779V125.024H78.9263V126.493H74.0742V117.746H78.9263Z" fill="#171717"/>
<path d="M85.5825 119.215H83.6154V126.493H81.9107V119.215H79.9436V117.746H85.5825V119.215Z" fill="#171717"/>
<path d="M20.6618 139.607V130.86H22.4453C23.7917 130.86 24.867 131.201 25.6713 131.883C26.6679 132.713 27.1663 133.832 27.1663 135.24C27.1663 136.604 26.6548 137.723 25.6319 138.597C25.2123 138.955 24.7621 139.213 24.2812 139.371C23.8004 139.528 23.1841 139.607 22.4322 139.607H20.6618ZM21.6323 131.778V138.689H22.4847C23.525 138.689 24.3599 138.426 24.9894 137.902C25.7762 137.237 26.1696 136.35 26.1696 135.24C26.1696 134.191 25.833 133.351 25.1599 132.722C24.4867 132.093 23.5949 131.778 22.4847 131.778H21.6323Z" fill="#171717"/>
<path d="M33.4849 130.86V131.778H29.918V134.374H33.38V135.292H29.918V138.689H33.4849V139.607H28.9476V130.86H33.4849Z" fill="#171717"/>
<path d="M39.9555 132.079L39.1818 132.591C39.0419 132.32 38.8715 132.101 38.6704 131.935C38.4081 131.734 38.0803 131.634 37.6868 131.634C37.2497 131.634 36.8957 131.76 36.6246 132.014C36.3536 132.259 36.2181 132.582 36.2181 132.984C36.2181 133.281 36.3274 133.535 36.546 133.745C36.7208 133.92 37.0268 134.103 37.4639 134.296L38.3032 134.663C38.9239 134.934 39.3741 135.209 39.6539 135.489C40.0735 135.909 40.2834 136.438 40.2834 137.076C40.2834 137.871 40.0211 138.518 39.4965 139.017C38.972 139.515 38.3119 139.764 37.5164 139.764C36.7295 139.764 36.0957 139.528 35.6149 139.056C35.2215 138.671 34.9504 138.155 34.8018 137.508L35.746 137.246C35.8072 137.683 35.9821 138.055 36.2706 138.361C36.594 138.684 37.0137 138.846 37.5295 138.846C38.089 138.846 38.5218 138.68 38.8277 138.348C39.1337 138.007 39.2867 137.596 39.2867 137.115C39.2867 136.695 39.1425 136.354 38.854 136.092C38.6879 135.935 38.3382 135.734 37.8049 135.489L37.018 135.122C36.4848 134.877 36.0957 134.637 35.8509 134.401C35.4488 134.016 35.2477 133.539 35.2477 132.971C35.2477 132.298 35.475 131.756 35.9296 131.345C36.393 130.925 36.9831 130.716 37.7 130.716C38.242 130.716 38.7097 130.847 39.1031 131.109C39.4616 131.345 39.7457 131.669 39.9555 132.079Z" fill="#171717"/>
<path d="M42.0613 130.86H43.0317V139.607H42.0613V130.86Z" fill="#171717"/>
<path d="M49.7996 136.132V135.214H53.4453V135.423C53.4453 136.507 53.1655 137.43 52.606 138.19C51.8279 139.24 50.7438 139.764 49.3538 139.764C48.0599 139.764 46.9802 139.331 46.1147 138.466C45.2492 137.592 44.8164 136.516 44.8164 135.24C44.8164 133.963 45.2492 132.892 46.1147 132.027C46.9889 131.153 48.0774 130.716 49.38 130.716C50.4116 130.716 51.3033 131.004 52.0552 131.581C52.4399 131.878 52.7765 132.224 53.065 132.617L52.3437 133.273C52.0902 132.914 51.8148 132.613 51.5175 132.368C50.9143 131.878 50.2062 131.634 49.3931 131.634C48.3528 131.634 47.496 131.979 46.8228 132.67C46.1496 133.36 45.8131 134.221 45.8131 135.253C45.8131 136.005 45.9967 136.665 46.3638 137.233C46.731 137.793 47.1769 138.204 47.7014 138.466C48.2347 138.719 48.7899 138.846 49.3669 138.846C49.9439 138.846 50.4684 138.715 50.9405 138.453C51.4214 138.182 51.7885 137.823 52.0421 137.377C52.2606 137.001 52.3787 136.586 52.3962 136.132H49.7996Z" fill="#171717"/>
<path d="M56.1967 139.607H55.2263V130.493L62.0454 137.64V130.86H63.0158V140L56.1967 132.853V139.607Z" fill="#171717"/>
</svg>
