<svg width="47" height="66" viewBox="0 0 47 66" fill="none" xmlns="http://www.w3.org/2000/svg">
<path d="M23.5703 31.2844C23.5703 37.9566 18.2939 43.3654 11.7851 43.3654C5.27639 43.3654 0 37.9566 0 31.2844C0 24.6122 5.27639 19.2034 11.7851 19.2034C18.2939 19.2034 23.5703 24.6122 23.5703 31.2844Z" fill="#1E293B"/>
<path fill-rule="evenodd" clip-rule="evenodd" d="M33.1336 39.7428C34.2519 36.9754 34.8274 34.0093 34.8274 31.0139H46.6125C46.6125 35.5958 45.7322 40.1329 44.0217 44.366C42.3112 48.5992 39.8041 52.4455 36.6436 55.6854C33.483 58.9253 29.7309 61.4953 25.6014 63.2487C21.472 65.0022 17.046 65.9046 12.5763 65.9046L12.5763 53.8236C15.4984 53.8236 18.3918 53.2336 21.0915 52.0873C23.7911 50.941 26.244 49.2609 28.3102 47.1428C30.3764 45.0247 32.0154 42.5102 33.1336 39.7428Z" fill="#1E293B"/>
<path d="M46.1729 5.58973C46.1729 8.67685 43.7316 11.1795 40.7201 11.1795C37.7086 11.1795 35.2673 8.67685 35.2673 5.58973C35.2673 2.50261 37.7086 0 40.7201 0C43.7316 0 46.1729 2.50261 46.1729 5.58973Z" fill="#1E293B"/>
</svg>
