<svg width="8" height="8" viewBox="0 0 8 8" fill="none" xmlns="http://www.w3.org/2000/svg">
<path fill-rule="evenodd" clip-rule="evenodd" d="M4 0C4.27614 0 4.5 0.223858 4.5 0.5V7.5C4.5 7.77614 4.27614 8 4 8C3.72386 8 3.5 7.77614 3.5 7.5V0.5C3.5 0.223858 3.72386 0 4 0Z" fill="#171717"/>
<path fill-rule="evenodd" clip-rule="evenodd" d="M0.146447 3.64645C0.341709 3.45118 0.658291 3.45118 0.853553 3.64645L4 6.79289L7.14645 3.64645C7.34171 3.45118 7.65829 3.45118 7.85355 3.64645C8.04882 3.84171 8.04882 4.15829 7.85355 4.35355L4.35355 7.85355C4.15829 8.04882 3.84171 8.04882 3.64645 7.85355L0.146447 4.35355C-0.0488155 4.15829 -0.0488155 3.84171 0.146447 3.64645Z" fill="#171717"/>
</svg>
