<svg width="31" height="16" viewBox="0 0 31 16" fill="none" xmlns="http://www.w3.org/2000/svg">
<path fill-rule="evenodd" clip-rule="evenodd" d="M23.7071 0.292893C23.3166 -0.0976311 22.6834 -0.0976311 22.2929 0.292893C21.9024 0.683417 21.9024 1.31658 22.2929 1.70711L27.5858 7L1 7C0.447715 7 0 7.44772 0 8C0 8.55229 0.447715 9 1 9L27.5858 9L22.2929 14.2929C21.9024 14.6834 21.9024 15.3166 22.2929 15.7071C22.6834 16.0976 23.3166 16.0976 23.7071 15.7071L30.7064 8.70782C30.7088 8.70541 30.7112 8.70298 30.7136 8.70055C30.8901 8.52079 30.9992 8.27463 31 8.003L31 8L31 7.997C30.9996 7.8625 30.9727 7.73425 30.9241 7.61722C30.8764 7.50195 30.8063 7.3938 30.7136 7.29945C30.7112 7.29705 30.7089 7.29466 30.7065 7.29228M30.7065 7.29228L23.7071 0.292893L30.7065 7.29228Z" fill="#171717"/>
</svg>
