<svg width="24" height="24" viewBox="0 0 24 24" fill="none" xmlns="http://www.w3.org/2000/svg">
<path fill-rule="evenodd" clip-rule="evenodd" d="M3.00036 11.919C3.00012 11.9459 3 11.973 3 12C3 14.211 3.7973 16.2358 5.12009 17.8026C7.23128 14.9943 9.40295 13.1954 11.7388 12.1875L11.1691 10.9304C8.77711 11.5314 6.0704 11.8164 3.00036 11.919ZM3.24418 9.90896C5.95784 9.80591 8.29492 9.55255 10.329 9.07642L7.99946 3.93579C5.64 5.10854 3.86819 7.28631 3.24418 9.90896ZM9.88448 3.25004L12.2729 8.52057C14.4582 7.76806 16.2506 6.66689 17.7735 5.09561C16.2108 3.78748 14.1974 3 12 3C11.2714 3 10.5629 3.08659 9.88448 3.25004ZM19.1567 6.54203C17.4329 8.30423 15.4334 9.52182 13.1017 10.3496L13.6471 11.553C15.7469 11.0533 18.2674 11.0418 20.9925 11.6294C20.9152 9.7203 20.2432 7.96443 19.1567 6.54203ZM20.8497 13.6466C18.4289 13.0876 16.2555 13.0645 14.4911 13.4157L17.184 19.358C19.0654 18.03 20.4148 15.9987 20.8497 13.6466ZM15.4263 20.3248L12.5645 14.0096C10.5669 14.8636 8.59912 16.4561 6.58238 19.1874C8.08958 20.3253 9.96599 21 12 21C13.2131 21 14.3702 20.76 15.4263 20.3248ZM1 12C1 5.92487 5.92487 1 12 1C18.0751 1 23 5.92487 23 12C23 18.0751 18.0751 23 12 23C5.92487 23 1 18.0751 1 12Z" fill="black"/>
</svg>
