<svg width="24" height="24" viewBox="0 0 24 24" fill="none" xmlns="http://www.w3.org/2000/svg">
<path fill-rule="evenodd" clip-rule="evenodd" d="M2.25 6C2.25 5.58579 2.58579 5.25 3 5.25H21C21.4142 5.25 21.75 5.58579 21.75 6C21.75 6.41421 21.4142 6.75 21 6.75H3C2.58579 6.75 2.25 6.41421 2.25 6ZM6.25 10C6.25 9.58579 6.58579 9.25 7 9.25H21C21.4142 9.25 21.75 9.58579 21.75 10C21.75 10.4142 21.4142 10.75 21 10.75H7C6.58579 10.75 6.25 10.4142 6.25 10ZM10.25 14C10.25 13.5858 10.5858 13.25 11 13.25H21C21.4142 13.25 21.75 13.5858 21.75 14C21.75 14.4142 21.4142 14.75 21 14.75H11C10.5858 14.75 10.25 14.4142 10.25 14ZM6.25 18C6.25 17.5858 6.58579 17.25 7 17.25H21C21.4142 17.25 21.75 17.5858 21.75 18C21.75 18.4142 21.4142 18.75 21 18.75H7C6.58579 18.75 6.25 18.4142 6.25 18Z" fill="#171717"/>
</svg>
