<svg width="278" height="384" viewBox="0 0 278 384" fill="none" xmlns="http://www.w3.org/2000/svg">
<path d="M140.419 182.019C140.419 220.838 108.985 252.308 70.2094 252.308C31.4338 252.308 0 220.838 0 182.019C0 143.199 31.4338 111.729 70.2094 111.729C108.985 111.729 140.419 143.199 140.419 182.019Z" fill="#F7F7F6"/>
<path fill-rule="evenodd" clip-rule="evenodd" d="M197.392 231.231C204.054 215.13 207.482 197.873 207.482 180.445H277.692C277.692 207.103 272.447 233.501 262.257 258.13C252.067 282.759 237.131 305.138 218.302 323.988C199.473 342.838 177.12 357.791 152.519 367.993C127.918 378.195 101.551 383.445 74.9229 383.445L74.9229 313.156C92.3308 313.156 109.568 309.723 125.651 303.054C141.734 296.384 156.347 286.609 168.657 274.286C180.966 261.962 190.73 247.332 197.392 231.231Z" fill="#F7F7F6"/>
<path d="M275.073 32.5221C275.073 50.4835 260.529 65.0441 242.588 65.0441C224.647 65.0441 210.103 50.4835 210.103 32.5221C210.103 14.5606 224.647 0 242.588 0C260.529 0 275.073 14.5606 275.073 32.5221Z" fill="#F7F7F6"/>
</svg>
