<svg width="78" height="108" viewBox="0 0 78 108" fill="none" xmlns="http://www.w3.org/2000/svg">
<path d="M39.1166 51.1928C39.1166 62.1109 30.3601 70.9617 19.5583 70.9617C8.75656 70.9617 0 62.1109 0 51.1928C0 40.2747 8.75656 31.4238 19.5583 31.4238C30.3601 31.4238 39.1166 40.2747 39.1166 51.1928Z" fill="#F7F7F6"/>
<path fill-rule="evenodd" clip-rule="evenodd" d="M54.9877 65.0336C56.8435 60.5052 57.7986 55.6516 57.7986 50.75H77.3569C77.3569 58.2477 75.8959 65.6719 73.0572 72.5989C70.2186 79.5258 66.0579 85.8198 60.8127 91.1215C55.5675 96.4232 49.3406 100.629 42.4874 103.498C35.6343 106.367 28.2891 107.844 20.8713 107.844L20.8713 88.075C25.7207 88.075 30.5226 87.1095 35.0028 85.2338C39.483 83.358 43.5539 80.6087 46.9829 77.1427C50.4119 73.6768 53.1319 69.5621 54.9877 65.0336Z" fill="#F7F7F6"/>
<path d="M76.6273 9.14683C76.6273 14.1985 72.5758 18.2937 67.5779 18.2937C62.5801 18.2937 58.5286 14.1985 58.5286 9.14683C58.5286 4.09517 62.5801 0 67.5779 0C72.5758 0 76.6273 4.09517 76.6273 9.14683Z" fill="#F7F7F6"/>
</svg>
