<svg width="1216" height="560" viewBox="0 0 1216 560" fill="none" xmlns="http://www.w3.org/2000/svg">
<circle cx="696" cy="280" r="280" fill="#171717"/>
<path d="M37.4 85C48.0333 85 56.9067 88.7033 64.02 96.11C71.2067 103.443 74.8 112.573 74.8 123.5C74.8 134.427 71.2067 143.593 64.02 151C56.9067 158.333 48.0333 162 37.4 162H5.5V85H37.4ZM37.4 140.66C41.8733 140.66 45.54 139.083 48.4 135.93C51.3333 132.703 52.8 128.56 52.8 123.5C52.8 118.44 51.3333 114.333 48.4 111.18C45.54 107.953 41.8733 106.34 37.4 106.34H28.6V140.66H37.4ZM92.1886 102.82C89.1086 102.82 86.4319 101.72 84.1586 99.52C81.9586 97.2467 80.8586 94.6067 80.8586 91.6C80.8586 88.5933 81.9586 85.99 84.1586 83.79C86.4319 81.5167 89.1086 80.38 92.1886 80.38C95.1953 80.38 97.7986 81.5167 99.9986 83.79C102.272 85.99 103.409 88.5933 103.409 91.6C103.409 94.6067 102.272 97.2467 99.9986 99.52C97.7986 101.72 95.1953 102.82 92.1886 102.82ZM81.9586 162V107H102.309V162H81.9586ZM149.135 107H169.485V160.35C169.485 164.75 168.642 168.637 166.955 172.01C165.342 175.383 163.142 178.023 160.355 179.93C157.568 181.91 154.488 183.377 151.115 184.33C147.815 185.283 144.332 185.76 140.665 185.76C134.212 185.76 128.492 184.587 123.505 182.24C118.518 179.893 114.815 176.593 112.395 172.34L128.895 162.77C131.535 166.363 135.092 168.16 139.565 168.16C142.132 168.16 144.368 167.5 146.275 166.18C148.182 164.933 149.135 162.99 149.135 160.35V154.85C145.615 159.177 140.702 161.34 134.395 161.34C127.062 161.34 121.012 158.663 116.245 153.31C111.552 147.957 109.205 141.32 109.205 133.4C109.205 125.48 111.552 118.843 116.245 113.49C121.012 108.137 127.062 105.46 134.395 105.46C140.702 105.46 145.615 107.623 149.135 111.95V107ZM132.195 140.44C134.028 142.347 136.412 143.3 139.345 143.3C142.278 143.3 144.625 142.347 146.385 140.44C148.218 138.533 149.135 136.187 149.135 133.4C149.135 130.613 148.218 128.267 146.385 126.36C144.625 124.453 142.278 123.5 139.345 123.5C136.412 123.5 134.028 124.453 132.195 126.36C130.435 128.267 129.555 130.613 129.555 133.4C129.555 136.187 130.435 138.533 132.195 140.44ZM188.546 102.82C185.466 102.82 182.789 101.72 180.516 99.52C178.316 97.2467 177.216 94.6067 177.216 91.6C177.216 88.5933 178.316 85.99 180.516 83.79C182.789 81.5167 185.466 80.38 188.546 80.38C191.553 80.38 194.156 81.5167 196.356 83.79C198.629 85.99 199.766 88.5933 199.766 91.6C199.766 94.6067 198.629 97.2467 196.356 99.52C194.156 101.72 191.553 102.82 188.546 102.82ZM178.316 162V107H198.666V162H178.316ZM243.727 126.36H232.177V138.24C232.177 140.073 232.617 141.43 233.497 142.31C234.377 143.19 235.661 143.703 237.347 143.85C239.107 143.923 241.234 143.887 243.727 143.74V162C232.214 163.613 224.001 162.623 219.087 159.03C214.247 155.437 211.827 148.873 211.827 139.34V126.36H204.127V107H211.827V97.65L232.177 91.6V107H243.727V126.36ZM287.906 107H308.256V162H287.906V157.05C284.386 161.377 279.473 163.54 273.166 163.54C265.759 163.54 259.709 160.79 255.016 155.29C250.323 149.79 247.976 142.86 247.976 134.5C247.976 126.14 250.323 119.21 255.016 113.71C259.709 108.21 265.759 105.46 273.166 105.46C279.473 105.46 284.386 107.623 287.906 111.95V107ZM270.966 141.87C272.799 143.85 275.183 144.84 278.116 144.84C281.049 144.84 283.396 143.85 285.156 141.87C286.989 139.89 287.906 137.433 287.906 134.5C287.906 131.567 286.989 129.11 285.156 127.13C283.396 125.15 281.049 124.16 278.116 124.16C275.183 124.16 272.799 125.15 270.966 127.13C269.206 129.11 268.326 131.567 268.326 134.5C268.326 137.433 269.206 139.89 270.966 141.87ZM317.105 162V81.7H337.455V162H317.105ZM405.748 85H426.098V162H405.748V157.05C402.228 161.377 397.315 163.54 391.008 163.54C383.601 163.54 377.551 160.79 372.858 155.29C368.165 149.79 365.818 142.86 365.818 134.5C365.818 126.14 368.165 119.21 372.858 113.71C377.551 108.21 383.601 105.46 391.008 105.46C397.315 105.46 402.228 107.623 405.748 111.95V85ZM388.808 141.87C390.641 143.85 393.025 144.84 395.958 144.84C398.891 144.84 401.238 143.85 402.998 141.87C404.831 139.89 405.748 137.433 405.748 134.5C405.748 131.567 404.831 129.11 402.998 127.13C401.238 125.15 398.891 124.16 395.958 124.16C393.025 124.16 390.641 125.15 388.808 127.13C387.048 129.11 386.168 131.567 386.168 134.5C386.168 137.433 387.048 139.89 388.808 141.87ZM452.882 141.43C454.642 145.097 458.382 146.93 464.102 146.93C467.475 146.93 470.592 145.757 473.452 143.41L486.762 154.63C481.262 160.57 473.489 163.54 463.442 163.54C454.055 163.54 446.502 160.827 440.782 155.4C435.135 149.9 432.312 143.007 432.312 134.72C432.312 126.36 435.062 119.393 440.562 113.82C446.135 108.247 453.139 105.46 461.572 105.46C469.932 105.46 476.789 108.21 482.142 113.71C487.569 119.137 490.282 125.993 490.282 134.28C490.282 136.7 489.989 139.083 489.402 141.43H452.882ZM452.552 128.34H471.032C469.785 123.94 466.815 121.74 462.122 121.74C457.355 121.74 454.165 123.94 452.552 128.34ZM513.826 123.17C513.826 124.05 514.486 124.747 515.806 125.26C517.2 125.773 518.923 126.177 520.976 126.47C523.03 126.69 525.23 127.167 527.576 127.9C529.923 128.633 532.123 129.55 534.176 130.65C536.23 131.75 537.916 133.51 539.236 135.93C540.63 138.277 541.326 141.137 541.326 144.51C541.326 148.03 540.52 151.11 538.906 153.75C537.366 156.39 535.313 158.37 532.746 159.69C530.18 161.01 527.54 161.963 524.826 162.55C522.186 163.21 519.436 163.54 516.576 163.54C503.303 163.54 494.723 159.177 490.836 150.45L508.546 142.53C509.94 146.27 512.543 148.14 516.356 148.14C518.85 148.14 520.096 147.333 520.096 145.72C520.096 144.767 519.18 143.997 517.346 143.41C515.513 142.823 513.313 142.237 510.746 141.65C508.18 140.99 505.576 140.147 502.936 139.12C500.37 138.02 498.17 136.223 496.336 133.73C494.503 131.237 493.586 128.12 493.586 124.38C493.586 118.367 495.86 113.71 500.406 110.41C505.026 107.11 510.343 105.46 516.356 105.46C528.383 105.46 536.34 110.117 540.226 119.43L523.396 125.48C522.076 122.4 520.023 120.86 517.236 120.86C514.963 120.86 513.826 121.63 513.826 123.17ZM557.648 102.82C554.568 102.82 551.891 101.72 549.618 99.52C547.418 97.2467 546.318 94.6067 546.318 91.6C546.318 88.5933 547.418 85.99 549.618 83.79C551.891 81.5167 554.568 80.38 557.648 80.38C560.654 80.38 563.258 81.5167 565.458 83.79C567.731 85.99 568.868 88.5933 568.868 91.6C568.868 94.6067 567.731 97.2467 565.458 99.52C563.258 101.72 560.654 102.82 557.648 102.82ZM547.418 162V107H567.768V162H547.418ZM614.594 107H634.944V160.35C634.944 164.75 634.101 168.637 632.414 172.01C630.801 175.383 628.601 178.023 625.814 179.93C623.027 181.91 619.947 183.377 616.574 184.33C613.274 185.283 609.791 185.76 606.124 185.76C599.671 185.76 593.951 184.587 588.964 182.24C583.977 179.893 580.274 176.593 577.854 172.34L594.354 162.77C596.994 166.363 600.551 168.16 605.024 168.16C607.591 168.16 609.827 167.5 611.734 166.18C613.641 164.933 614.594 162.99 614.594 160.35V154.85C611.074 159.177 606.161 161.34 599.854 161.34C592.521 161.34 586.471 158.663 581.704 153.31C577.011 147.957 574.664 141.32 574.664 133.4C574.664 125.48 577.011 118.843 581.704 113.49C586.471 108.137 592.521 105.46 599.854 105.46C606.161 105.46 611.074 107.623 614.594 111.95V107ZM597.654 140.44C599.487 142.347 601.871 143.3 604.804 143.3C607.737 143.3 610.084 142.347 611.844 140.44C613.677 138.533 614.594 136.187 614.594 133.4C614.594 130.613 613.677 128.267 611.844 126.36C610.084 124.453 607.737 123.5 604.804 123.5C601.871 123.5 599.487 124.453 597.654 126.36C595.894 128.267 595.014 130.613 595.014 133.4C595.014 136.187 595.894 138.533 597.654 140.44ZM678.865 105.46C684.878 105.46 689.682 107.55 693.275 111.73C696.942 115.837 698.775 121.997 698.775 130.21V162H678.425V132.41C678.425 127.497 676.152 125.04 671.605 125.04C669.185 125.04 667.315 125.81 665.995 127.35C664.748 128.89 664.125 131.017 664.125 133.73V162H643.775V107H664.125V112.39C667.498 107.77 672.412 105.46 678.865 105.46ZM74.03 287.51L57.42 297.08L51.37 290.37C45.2833 293.963 38.5733 295.76 31.24 295.76C22.5867 295.76 15.7667 293.487 10.78 288.94C5.79333 284.32 3.3 278.6 3.3 271.78C3.3 262.98 7.44333 256.05 15.73 250.99C13.09 247.03 11.77 242.813 11.77 238.34C11.77 231.667 14.2267 226.167 19.14 221.84C24.0533 217.44 30.25 215.24 37.73 215.24C50.8567 215.24 60.2067 221.18 65.78 233.06L47.41 243.73C45.3567 238.377 42.57 235.7 39.05 235.7C35.8967 235.7 34.32 237.203 34.32 240.21C34.32 240.503 34.32 240.797 34.32 241.09C34.3933 241.383 34.5033 241.677 34.65 241.97C34.7967 242.263 34.9067 242.557 34.98 242.85C35.1267 243.07 35.3467 243.363 35.64 243.73C35.9333 244.097 36.1533 244.427 36.3 244.72C36.4467 244.94 36.7033 245.307 37.07 245.82C37.51 246.26 37.84 246.627 38.06 246.92C38.28 247.14 38.6467 247.543 39.16 248.13C39.6733 248.717 40.0767 249.157 40.37 249.45L51.92 262.54C53.46 259.313 54.56 255.903 55.22 252.31L72.38 262.32C70.6933 267.747 68.2733 272.77 65.12 277.39L74.03 287.51ZM33.88 277.5C35.5667 277.5 37.2167 277.207 38.83 276.62L28.05 264.85C26.29 266.537 25.41 268.48 25.41 270.68C25.41 272.587 26.1067 274.2 27.5 275.52C28.9667 276.84 31.0933 277.5 33.88 277.5ZM121.199 255.17C121.199 256.05 121.859 256.747 123.179 257.26C124.573 257.773 126.296 258.177 128.349 258.47C130.403 258.69 132.603 259.167 134.949 259.9C137.296 260.633 139.496 261.55 141.549 262.65C143.603 263.75 145.289 265.51 146.609 267.93C148.003 270.277 148.699 273.137 148.699 276.51C148.699 280.03 147.893 283.11 146.279 285.75C144.739 288.39 142.686 290.37 140.119 291.69C137.553 293.01 134.913 293.963 132.199 294.55C129.559 295.21 126.809 295.54 123.949 295.54C110.676 295.54 102.096 291.177 98.2094 282.45L115.919 274.53C117.313 278.27 119.916 280.14 123.729 280.14C126.223 280.14 127.469 279.333 127.469 277.72C127.469 276.767 126.553 275.997 124.719 275.41C122.886 274.823 120.686 274.237 118.119 273.65C115.553 272.99 112.949 272.147 110.309 271.12C107.743 270.02 105.543 268.223 103.709 265.73C101.876 263.237 100.959 260.12 100.959 256.38C100.959 250.367 103.233 245.71 107.779 242.41C112.399 239.11 117.716 237.46 123.729 237.46C135.756 237.46 143.713 242.117 147.599 251.43L130.769 257.48C129.449 254.4 127.396 252.86 124.609 252.86C122.336 252.86 121.199 253.63 121.199 255.17ZM181.961 295.54C173.747 295.54 166.744 292.753 160.951 287.18C155.231 281.607 152.371 274.713 152.371 266.5C152.371 258.287 155.231 251.393 160.951 245.82C166.671 240.247 173.674 237.46 181.961 237.46C190.247 237.46 197.251 240.247 202.971 245.82C208.691 251.393 211.551 258.287 211.551 266.5C211.551 274.713 208.691 281.607 202.971 287.18C197.251 292.753 190.247 295.54 181.961 295.54ZM175.251 273.54C177.011 275.3 179.247 276.18 181.961 276.18C184.674 276.18 186.874 275.3 188.561 273.54C190.321 271.707 191.201 269.36 191.201 266.5C191.201 263.64 190.321 261.33 188.561 259.57C186.874 257.737 184.674 256.82 181.961 256.82C179.247 256.82 177.011 257.737 175.251 259.57C173.564 261.33 172.721 263.64 172.721 266.5C172.721 269.36 173.564 271.707 175.251 273.54ZM248.78 233.5C246.14 233.28 244.05 233.683 242.51 234.71C241.044 235.737 240.31 237.167 240.31 239H248.78V258.36H240.31V294H219.96V258.36H213.58V239H219.96C219.96 231.08 222.417 225.03 227.33 220.85C232.244 216.597 239.394 214.727 248.78 215.24V233.5ZM291.1 258.36H279.55V270.24C279.55 272.073 279.99 273.43 280.87 274.31C281.75 275.19 283.034 275.703 284.72 275.85C286.48 275.923 288.607 275.887 291.1 275.74V294C279.587 295.613 271.374 294.623 266.46 291.03C261.62 287.437 259.2 280.873 259.2 271.34V258.36H251.5V239H259.2V229.65L279.55 223.6V239H291.1V258.36ZM362.093 239H383.543L367.593 294H346.913L340.093 268.15L333.273 294H312.593L296.643 239H318.093L324.473 269.47L332.393 239H347.793L355.713 269.47L362.093 239ZM424.869 239H445.219V294H424.869V289.05C421.349 293.377 416.436 295.54 410.129 295.54C402.722 295.54 396.672 292.79 391.979 287.29C387.286 281.79 384.939 274.86 384.939 266.5C384.939 258.14 387.286 251.21 391.979 245.71C396.672 240.21 402.722 237.46 410.129 237.46C416.436 237.46 421.349 239.623 424.869 243.95V239ZM407.929 273.87C409.762 275.85 412.146 276.84 415.079 276.84C418.012 276.84 420.359 275.85 422.119 273.87C423.952 271.89 424.869 269.433 424.869 266.5C424.869 263.567 423.952 261.11 422.119 259.13C420.359 257.15 418.012 256.16 415.079 256.16C412.146 256.16 409.762 257.15 407.929 259.13C406.169 261.11 405.289 263.567 405.289 266.5C405.289 269.433 406.169 271.89 407.929 273.87ZM474.418 249.67C475.445 245.93 477.461 243.033 480.468 240.98C483.475 238.927 486.958 237.9 490.918 237.9V259.9C486.518 259.313 482.668 260.193 479.368 262.54C476.068 264.813 474.418 268.48 474.418 273.54V294H454.068V239H474.418V249.67ZM514.005 273.43C515.765 277.097 519.505 278.93 525.225 278.93C528.598 278.93 531.715 277.757 534.575 275.41L547.885 286.63C542.385 292.57 534.612 295.54 524.565 295.54C515.178 295.54 507.625 292.827 501.905 287.4C496.258 281.9 493.435 275.007 493.435 266.72C493.435 258.36 496.185 251.393 501.685 245.82C507.258 240.247 514.262 237.46 522.695 237.46C531.055 237.46 537.912 240.21 543.265 245.71C548.692 251.137 551.405 257.993 551.405 266.28C551.405 268.7 551.112 271.083 550.525 273.43H514.005ZM513.675 260.34H532.155C530.908 255.94 527.938 253.74 523.245 253.74C518.478 253.74 515.288 255.94 513.675 260.34ZM616.939 239H637.289V294H616.939V289.05C613.419 293.377 608.506 295.54 602.199 295.54C594.793 295.54 588.743 292.79 584.049 287.29C579.356 281.79 577.009 274.86 577.009 266.5C577.009 258.14 579.356 251.21 584.049 245.71C588.743 240.21 594.793 237.46 602.199 237.46C608.506 237.46 613.419 239.623 616.939 243.95V239ZM599.999 273.87C601.833 275.85 604.216 276.84 607.149 276.84C610.083 276.84 612.429 275.85 614.189 273.87C616.023 271.89 616.939 269.433 616.939 266.5C616.939 263.567 616.023 261.11 614.189 259.13C612.429 257.15 610.083 256.16 607.149 256.16C604.216 256.16 601.833 257.15 599.999 259.13C598.239 261.11 597.359 263.567 597.359 266.5C597.359 269.433 598.239 271.89 599.999 273.87ZM684.203 239H704.553V292.35C704.553 296.75 703.71 300.637 702.023 304.01C700.41 307.383 698.21 310.023 695.423 311.93C692.637 313.91 689.557 315.377 686.183 316.33C682.883 317.283 679.4 317.76 675.733 317.76C669.28 317.76 663.56 316.587 658.573 314.24C653.587 311.893 649.883 308.593 647.463 304.34L663.963 294.77C666.603 298.363 670.16 300.16 674.633 300.16C677.2 300.16 679.437 299.5 681.343 298.18C683.25 296.933 684.203 294.99 684.203 292.35V286.85C680.683 291.177 675.77 293.34 669.463 293.34C662.13 293.34 656.08 290.663 651.313 285.31C646.62 279.957 644.273 273.32 644.273 265.4C644.273 257.48 646.62 250.843 651.313 245.49C656.08 240.137 662.13 237.46 669.463 237.46C675.77 237.46 680.683 239.623 684.203 243.95V239ZM667.263 272.44C669.097 274.347 671.48 275.3 674.413 275.3C677.347 275.3 679.693 274.347 681.453 272.44C683.287 270.533 684.203 268.187 684.203 265.4C684.203 262.613 683.287 260.267 681.453 258.36C679.693 256.453 677.347 255.5 674.413 255.5C671.48 255.5 669.097 256.453 667.263 258.36C665.503 260.267 664.623 262.613 664.623 265.4C664.623 268.187 665.503 270.533 667.263 272.44ZM731.32 273.43C733.08 277.097 736.82 278.93 742.54 278.93C745.913 278.93 749.03 277.757 751.89 275.41L765.2 286.63C759.7 292.57 751.926 295.54 741.88 295.54C732.493 295.54 724.94 292.827 719.22 287.4C713.573 281.9 710.75 275.007 710.75 266.72C710.75 258.36 713.5 251.393 719 245.82C724.573 240.247 731.576 237.46 740.01 237.46C748.37 237.46 755.226 240.21 760.58 245.71C766.006 251.137 768.72 257.993 768.72 266.28C768.72 268.7 768.426 271.083 767.84 273.43H731.32ZM730.99 260.34H749.47C748.223 255.94 745.253 253.74 740.56 253.74C735.793 253.74 732.603 255.94 730.99 260.34ZM809.812 237.46C815.826 237.46 820.629 239.55 824.222 243.73C827.889 247.837 829.722 253.997 829.722 262.21V294H809.372V264.41C809.372 259.497 807.099 257.04 802.552 257.04C800.132 257.04 798.262 257.81 796.942 259.35C795.696 260.89 795.072 263.017 795.072 265.73V294H774.722V239H795.072V244.39C798.446 239.77 803.359 237.46 809.812 237.46ZM864.729 295.54C856.296 295.54 849.292 292.79 843.719 287.29C838.146 281.717 835.359 274.787 835.359 266.5C835.359 258.213 838.146 251.32 843.719 245.82C849.292 240.247 856.296 237.46 864.729 237.46C870.156 237.46 875.106 238.78 879.579 241.42C884.126 243.987 887.609 247.47 890.029 251.87L872.869 261.66C871.036 258.58 868.322 257.04 864.729 257.04C862.162 257.04 859.999 257.957 858.239 259.79C856.552 261.55 855.709 263.787 855.709 266.5C855.709 269.213 856.552 271.487 858.239 273.32C859.999 275.08 862.162 275.96 864.729 275.96C868.542 275.96 871.256 274.383 872.869 271.23L890.029 281.13C887.609 285.603 884.126 289.123 879.579 291.69C875.106 294.257 870.156 295.54 864.729 295.54ZM930.235 239H953.335L934.635 293.89C931.921 301.883 927.705 307.64 921.985 311.16C916.265 314.753 908.711 316.367 899.325 316V296.75C903.065 296.75 905.925 296.457 907.905 295.87C909.885 295.357 911.461 294.367 912.635 292.9L890.635 239H913.735L923.525 268.37L930.235 239ZM40.7 390.36H29.15V402.24C29.15 404.073 29.59 405.43 30.47 406.31C31.35 407.19 32.6333 407.703 34.32 407.85C36.08 407.923 38.2067 407.887 40.7 407.74V426C29.1867 427.613 20.9733 426.623 16.06 423.03C11.22 419.437 8.8 412.873 8.8 403.34V390.36H1.1V371H8.8V361.65L29.15 355.6V371H40.7V390.36ZM82.9959 369.46C89.0092 369.46 93.8125 371.55 97.4059 375.73C101.073 379.837 102.906 385.997 102.906 394.21V426H82.5559V396.41C82.5559 391.497 80.2825 389.04 75.7359 389.04C73.3159 389.04 71.4459 389.81 70.1259 391.35C68.8792 392.89 68.2559 395.017 68.2559 397.73V426H47.9059V349H68.2559V376.39C71.6292 371.77 76.5425 369.46 82.9959 369.46ZM148.473 371H168.823V426H148.473V421.05C144.953 425.377 140.039 427.54 133.733 427.54C126.326 427.54 120.276 424.79 115.583 419.29C110.889 413.79 108.543 406.86 108.543 398.5C108.543 390.14 110.889 383.21 115.583 377.71C120.276 372.21 126.326 369.46 133.733 369.46C140.039 369.46 144.953 371.623 148.473 375.95V371ZM131.533 405.87C133.366 407.85 135.749 408.84 138.683 408.84C141.616 408.84 143.963 407.85 145.723 405.87C147.556 403.89 148.473 401.433 148.473 398.5C148.473 395.567 147.556 393.11 145.723 391.13C143.963 389.15 141.616 388.16 138.683 388.16C135.749 388.16 133.366 389.15 131.533 391.13C129.773 393.11 128.893 395.567 128.893 398.5C128.893 401.433 129.773 403.89 131.533 405.87ZM213.971 390.36H202.421V402.24C202.421 404.073 202.861 405.43 203.741 406.31C204.621 407.19 205.905 407.703 207.591 407.85C209.351 407.923 211.478 407.887 213.971 407.74V426C202.458 427.613 194.245 426.623 189.331 423.03C184.491 419.437 182.071 412.873 182.071 403.34V390.36H174.371V371H182.071V361.65L202.421 355.6V371H213.971V390.36ZM306.986 371H328.436L312.486 426H291.806L284.986 400.15L278.166 426H257.486L241.536 371H262.986L269.366 401.47L277.286 371H292.686L300.606 401.47L306.986 371ZM359.422 427.54C351.208 427.54 344.205 424.753 338.412 419.18C332.692 413.607 329.832 406.713 329.832 398.5C329.832 390.287 332.692 383.393 338.412 377.82C344.132 372.247 351.135 369.46 359.422 369.46C367.708 369.46 374.712 372.247 380.432 377.82C386.152 383.393 389.012 390.287 389.012 398.5C389.012 406.713 386.152 413.607 380.432 419.18C374.712 424.753 367.708 427.54 359.422 427.54ZM352.712 405.54C354.472 407.3 356.708 408.18 359.422 408.18C362.135 408.18 364.335 407.3 366.022 405.54C367.782 403.707 368.662 401.36 368.662 398.5C368.662 395.64 367.782 393.33 366.022 391.57C364.335 389.737 362.135 388.82 359.422 388.82C356.708 388.82 354.472 389.737 352.712 391.57C351.025 393.33 350.182 395.64 350.182 398.5C350.182 401.36 351.025 403.707 352.712 405.54ZM415.766 381.67C416.792 377.93 418.809 375.033 421.816 372.98C424.822 370.927 428.306 369.9 432.266 369.9V391.9C427.866 391.313 424.016 392.193 420.716 394.54C417.416 396.813 415.766 400.48 415.766 405.54V426H395.416V371H415.766V381.67ZM494.377 426H471.827L458.627 404V426H438.277V349H458.627V392.34L470.177 371H493.277L476.557 398.5L494.377 426ZM515.115 387.17C515.115 388.05 515.775 388.747 517.095 389.26C518.489 389.773 520.212 390.177 522.265 390.47C524.319 390.69 526.519 391.167 528.865 391.9C531.212 392.633 533.412 393.55 535.465 394.65C537.519 395.75 539.205 397.51 540.525 399.93C541.919 402.277 542.615 405.137 542.615 408.51C542.615 412.03 541.809 415.11 540.195 417.75C538.655 420.39 536.602 422.37 534.035 423.69C531.469 425.01 528.829 425.963 526.115 426.55C523.475 427.21 520.725 427.54 517.865 427.54C504.592 427.54 496.012 423.177 492.125 414.45L509.835 406.53C511.229 410.27 513.832 412.14 517.645 412.14C520.139 412.14 521.385 411.333 521.385 409.72C521.385 408.767 520.469 407.997 518.635 407.41C516.802 406.823 514.602 406.237 512.035 405.65C509.469 404.99 506.865 404.147 504.225 403.12C501.659 402.02 499.459 400.223 497.625 397.73C495.792 395.237 494.875 392.12 494.875 388.38C494.875 382.367 497.149 377.71 501.695 374.41C506.315 371.11 511.632 369.46 517.645 369.46C529.672 369.46 537.629 374.117 541.515 383.43L524.685 389.48C523.365 386.4 521.312 384.86 518.525 384.86C516.252 384.86 515.115 385.63 515.115 387.17Z" fill="#171717"/>
<path d="M17.3086 506H15.3398L11.8828 494.527C11.7188 494.02 11.5352 493.379 11.332 492.605C11.1289 491.832 11.0234 491.367 11.0156 491.211C10.8438 492.242 10.5703 493.371 10.1953 494.598L6.84375 506H4.875L0.316406 488.867H2.42578L5.13281 499.449C5.50781 500.934 5.78125 502.277 5.95312 503.48C6.16406 502.051 6.47656 500.652 6.89062 499.285L9.96094 488.867H12.0703L15.293 499.379C15.668 500.59 15.9844 501.957 16.2422 503.48C16.3906 502.371 16.6719 501.02 17.0859 499.426L19.7812 488.867H21.8906L17.3086 506ZM29.947 506.234C28.0486 506.234 26.5486 505.656 25.447 504.5C24.3533 503.344 23.8064 501.738 23.8064 499.684C23.8064 497.613 24.3142 495.969 25.3298 494.75C26.3533 493.531 27.7244 492.922 29.4431 492.922C31.0525 492.922 32.3259 493.453 33.2634 494.516C34.2009 495.57 34.6697 496.965 34.6697 498.699V499.93H25.822C25.8611 501.438 26.24 502.582 26.9587 503.363C27.6853 504.145 28.7048 504.535 30.0173 504.535C31.4002 504.535 32.7673 504.246 34.1189 503.668V505.402C33.4314 505.699 32.7791 505.91 32.1619 506.035C31.5525 506.168 30.8142 506.234 29.947 506.234ZM29.4197 494.551C28.3884 494.551 27.5642 494.887 26.947 495.559C26.3377 496.23 25.9783 497.16 25.8689 498.348H32.5837C32.5837 497.121 32.3103 496.184 31.7634 495.535C31.2166 494.879 30.4353 494.551 29.4197 494.551ZM49.845 506.234C47.9856 506.234 46.5442 505.664 45.5208 504.523C44.5052 503.375 43.9973 501.754 43.9973 499.66C43.9973 497.512 44.513 495.852 45.5442 494.68C46.5833 493.508 48.0598 492.922 49.9739 492.922C50.5911 492.922 51.2083 492.988 51.8255 493.121C52.4427 493.254 52.927 493.41 53.2786 493.59L52.6809 495.242C52.2513 495.07 51.7825 494.93 51.2747 494.82C50.7669 494.703 50.3177 494.645 49.927 494.645C47.3177 494.645 46.013 496.309 46.013 499.637C46.013 501.215 46.3294 502.426 46.9622 503.27C47.6028 504.113 48.5481 504.535 49.7981 504.535C50.8684 504.535 51.9661 504.305 53.0911 503.844V505.566C52.2317 506.012 51.1497 506.234 49.845 506.234ZM62.2491 492.922C62.8194 492.922 63.3311 492.969 63.7842 493.062L63.5147 494.867C62.9834 494.75 62.5147 494.691 62.1084 494.691C61.0694 494.691 60.1787 495.113 59.4366 495.957C58.7022 496.801 58.335 497.852 58.335 499.109V506H56.3897V493.156H57.9952L58.2178 495.535H58.3116C58.7881 494.699 59.3623 494.055 60.0342 493.602C60.7061 493.148 61.4444 492.922 62.2491 492.922ZM71.8523 506.234C69.9539 506.234 68.4539 505.656 67.3523 504.5C66.2586 503.344 65.7117 501.738 65.7117 499.684C65.7117 497.613 66.2195 495.969 67.2352 494.75C68.2586 493.531 69.6297 492.922 71.3484 492.922C72.9578 492.922 74.2312 493.453 75.1687 494.516C76.1062 495.57 76.575 496.965 76.575 498.699V499.93H67.7273C67.7664 501.438 68.1453 502.582 68.8641 503.363C69.5906 504.145 70.6102 504.535 71.9227 504.535C73.3055 504.535 74.6727 504.246 76.0242 503.668V505.402C75.3367 505.699 74.6844 505.91 74.0672 506.035C73.4578 506.168 72.7195 506.234 71.8523 506.234ZM71.325 494.551C70.2937 494.551 69.4695 494.887 68.8523 495.559C68.243 496.23 67.8836 497.16 67.7742 498.348H74.4891C74.4891 497.121 74.2156 496.184 73.6687 495.535C73.1219 494.879 72.3406 494.551 71.325 494.551ZM88.0416 506L87.6548 504.172H87.5611C86.9205 504.977 86.2798 505.523 85.6392 505.812C85.0064 506.094 84.2134 506.234 83.2603 506.234C81.9869 506.234 80.9869 505.906 80.2603 505.25C79.5416 504.594 79.1822 503.66 79.1822 502.449C79.1822 499.855 81.2564 498.496 85.4048 498.371L87.5845 498.301V497.504C87.5845 496.496 87.3658 495.754 86.9283 495.277C86.4986 494.793 85.8072 494.551 84.8541 494.551C83.7838 494.551 82.5728 494.879 81.2213 495.535L80.6236 494.047C81.2564 493.703 81.9478 493.434 82.6978 493.238C83.4556 493.043 84.2134 492.945 84.9713 492.945C86.5025 492.945 87.6353 493.285 88.3697 493.965C89.1119 494.645 89.483 495.734 89.483 497.234V506H88.0416ZM83.647 504.629C84.858 504.629 85.8072 504.297 86.4947 503.633C87.19 502.969 87.5377 502.039 87.5377 500.844V499.684L85.5923 499.766C84.0455 499.82 82.9283 500.062 82.2408 500.492C81.5611 500.914 81.2213 501.574 81.2213 502.473C81.2213 503.176 81.4322 503.711 81.8541 504.078C82.2838 504.445 82.8814 504.629 83.647 504.629ZM97.8909 504.629C98.2347 504.629 98.5667 504.605 98.887 504.559C99.2073 504.504 99.4613 504.449 99.6488 504.395V505.883C99.4378 505.984 99.1253 506.066 98.7113 506.129C98.305 506.199 97.9378 506.234 97.6097 506.234C95.1253 506.234 93.8831 504.926 93.8831 502.309V494.668H92.0433V493.73L93.8831 492.922L94.7034 490.18H95.8284V493.156H99.555V494.668H95.8284V502.227C95.8284 503 96.012 503.594 96.3792 504.008C96.7464 504.422 97.2503 504.629 97.8909 504.629ZM107.893 506.234C105.994 506.234 104.494 505.656 103.393 504.5C102.299 503.344 101.752 501.738 101.752 499.684C101.752 497.613 102.26 495.969 103.275 494.75C104.299 493.531 105.67 492.922 107.389 492.922C108.998 492.922 110.272 493.453 111.209 494.516C112.147 495.57 112.615 496.965 112.615 498.699V499.93H103.768C103.807 501.438 104.186 502.582 104.904 503.363C105.631 504.145 106.65 504.535 107.963 504.535C109.346 504.535 110.713 504.246 112.065 503.668V505.402C111.377 505.699 110.725 505.91 110.107 506.035C109.498 506.168 108.76 506.234 107.893 506.234ZM107.365 494.551C106.334 494.551 105.51 494.887 104.893 495.559C104.283 496.23 103.924 497.16 103.815 498.348H110.529C110.529 497.121 110.256 496.184 109.709 495.535C109.162 494.879 108.381 494.551 107.365 494.551ZM128.634 492.945C130.322 492.945 131.63 493.523 132.56 494.68C133.498 495.828 133.966 497.457 133.966 499.566C133.966 501.676 133.494 503.316 132.548 504.488C131.611 505.652 130.306 506.234 128.634 506.234C127.798 506.234 127.033 506.082 126.338 505.777C125.65 505.465 125.072 504.988 124.603 504.348H124.463L124.052 506H122.658V487.766H124.603V492.195C124.603 493.188 124.572 494.078 124.509 494.867H124.603C125.509 493.586 126.853 492.945 128.634 492.945ZM128.353 494.574C127.025 494.574 126.068 494.957 125.482 495.723C124.896 496.48 124.603 497.762 124.603 499.566C124.603 501.371 124.904 502.664 125.505 503.445C126.107 504.219 127.072 504.605 128.4 504.605C129.595 504.605 130.486 504.172 131.072 503.305C131.658 502.43 131.951 501.176 131.951 499.543C131.951 497.871 131.658 496.625 131.072 495.805C130.486 494.984 129.58 494.574 128.353 494.574ZM143.042 506.234C141.144 506.234 139.644 505.656 138.542 504.5C137.449 503.344 136.902 501.738 136.902 499.684C136.902 497.613 137.41 495.969 138.425 494.75C139.449 493.531 140.82 492.922 142.538 492.922C144.148 492.922 145.421 493.453 146.359 494.516C147.296 495.57 147.765 496.965 147.765 498.699V499.93H138.917C138.956 501.438 139.335 502.582 140.054 503.363C140.781 504.145 141.8 504.535 143.113 504.535C144.495 504.535 145.863 504.246 147.214 503.668V505.402C146.527 505.699 145.874 505.91 145.257 506.035C144.648 506.168 143.91 506.234 143.042 506.234ZM142.515 494.551C141.484 494.551 140.66 494.887 140.042 495.559C139.433 496.23 139.074 497.16 138.964 498.348H145.679C145.679 497.121 145.406 496.184 144.859 495.535C144.312 494.879 143.531 494.551 142.515 494.551ZM159.618 502.496C159.618 503.691 159.173 504.613 158.282 505.262C157.392 505.91 156.142 506.234 154.532 506.234C152.829 506.234 151.501 505.965 150.548 505.426V503.621C151.165 503.934 151.825 504.18 152.528 504.359C153.239 504.539 153.923 504.629 154.579 504.629C155.595 504.629 156.376 504.469 156.923 504.148C157.47 503.82 157.743 503.324 157.743 502.66C157.743 502.16 157.525 501.734 157.087 501.383C156.657 501.023 155.814 500.602 154.556 500.117C153.36 499.672 152.509 499.285 152.001 498.957C151.501 498.621 151.126 498.242 150.876 497.82C150.634 497.398 150.513 496.895 150.513 496.309C150.513 495.262 150.939 494.438 151.79 493.836C152.642 493.227 153.81 492.922 155.294 492.922C156.677 492.922 158.028 493.203 159.349 493.766L158.657 495.348C157.368 494.816 156.2 494.551 155.153 494.551C154.232 494.551 153.536 494.695 153.068 494.984C152.599 495.273 152.364 495.672 152.364 496.18C152.364 496.523 152.45 496.816 152.622 497.059C152.802 497.301 153.087 497.531 153.478 497.75C153.868 497.969 154.618 498.285 155.728 498.699C157.251 499.254 158.278 499.812 158.81 500.375C159.349 500.938 159.618 501.645 159.618 502.496ZM167.182 504.629C167.526 504.629 167.858 504.605 168.179 504.559C168.499 504.504 168.753 504.449 168.94 504.395V505.883C168.729 505.984 168.417 506.066 168.003 506.129C167.597 506.199 167.229 506.234 166.901 506.234C164.417 506.234 163.175 504.926 163.175 502.309V494.668H161.335V493.73L163.175 492.922L163.995 490.18H165.12V493.156H168.847V494.668H165.12V502.227C165.12 503 165.304 503.594 165.671 504.008C166.038 504.422 166.542 504.629 167.182 504.629ZM186.518 502.496C186.518 503.691 186.073 504.613 185.182 505.262C184.291 505.91 183.041 506.234 181.432 506.234C179.729 506.234 178.401 505.965 177.448 505.426V503.621C178.065 503.934 178.725 504.18 179.428 504.359C180.139 504.539 180.823 504.629 181.479 504.629C182.495 504.629 183.276 504.469 183.823 504.148C184.37 503.82 184.643 503.324 184.643 502.66C184.643 502.16 184.424 501.734 183.987 501.383C183.557 501.023 182.713 500.602 181.455 500.117C180.26 499.672 179.409 499.285 178.901 498.957C178.401 498.621 178.026 498.242 177.776 497.82C177.534 497.398 177.413 496.895 177.413 496.309C177.413 495.262 177.838 494.438 178.69 493.836C179.541 493.227 180.709 492.922 182.194 492.922C183.577 492.922 184.928 493.203 186.248 493.766L185.557 495.348C184.268 494.816 183.1 494.551 182.053 494.551C181.131 494.551 180.436 494.695 179.967 494.984C179.498 495.273 179.264 495.672 179.264 496.18C179.264 496.523 179.35 496.816 179.522 497.059C179.702 497.301 179.987 497.531 180.377 497.75C180.768 497.969 181.518 498.285 182.627 498.699C184.151 499.254 185.178 499.812 185.709 500.375C186.248 500.938 186.518 501.645 186.518 502.496ZM201.02 499.566C201.02 501.66 200.492 503.297 199.438 504.477C198.383 505.648 196.926 506.234 195.067 506.234C193.918 506.234 192.899 505.965 192.008 505.426C191.117 504.887 190.43 504.113 189.945 503.105C189.461 502.098 189.219 500.918 189.219 499.566C189.219 497.473 189.742 495.844 190.789 494.68C191.836 493.508 193.289 492.922 195.149 492.922C196.945 492.922 198.371 493.52 199.426 494.715C200.488 495.91 201.02 497.527 201.02 499.566ZM191.235 499.566C191.235 501.207 191.563 502.457 192.219 503.316C192.875 504.176 193.84 504.605 195.113 504.605C196.387 504.605 197.352 504.18 198.008 503.328C198.672 502.469 199.004 501.215 199.004 499.566C199.004 497.934 198.672 496.695 198.008 495.852C197.352 495 196.379 494.574 195.09 494.574C193.817 494.574 192.856 494.992 192.207 495.828C191.559 496.664 191.235 497.91 191.235 499.566ZM206.627 506H204.682V487.766H206.627V506ZM212.82 493.156V501.488C212.82 502.535 213.058 503.316 213.535 503.832C214.011 504.348 214.758 504.605 215.773 504.605C217.117 504.605 218.097 504.238 218.715 503.504C219.34 502.77 219.652 501.57 219.652 499.906V493.156H221.597V506H219.992L219.711 504.277H219.605C219.207 504.91 218.652 505.395 217.941 505.73C217.238 506.066 216.433 506.234 215.527 506.234C213.965 506.234 212.793 505.863 212.011 505.121C211.238 504.379 210.851 503.191 210.851 501.559V493.156H212.82ZM230.122 504.629C230.466 504.629 230.798 504.605 231.119 504.559C231.439 504.504 231.693 504.449 231.88 504.395V505.883C231.669 505.984 231.357 506.066 230.943 506.129C230.537 506.199 230.169 506.234 229.841 506.234C227.357 506.234 226.115 504.926 226.115 502.309V494.668H224.275V493.73L226.115 492.922L226.935 490.18H228.06V493.156H231.787V494.668H228.06V502.227C228.06 503 228.244 503.594 228.611 504.008C228.978 504.422 229.482 504.629 230.122 504.629ZM236.644 506H234.698V493.156H236.644V506ZM234.534 489.676C234.534 489.23 234.644 488.906 234.863 488.703C235.081 488.492 235.355 488.387 235.683 488.387C235.995 488.387 236.265 488.492 236.491 488.703C236.718 488.914 236.831 489.238 236.831 489.676C236.831 490.113 236.718 490.441 236.491 490.66C236.265 490.871 235.995 490.977 235.683 490.977C235.355 490.977 235.081 490.871 234.863 490.66C234.644 490.441 234.534 490.113 234.534 489.676ZM252.095 499.566C252.095 501.66 251.567 503.297 250.513 504.477C249.458 505.648 248.001 506.234 246.142 506.234C244.993 506.234 243.974 505.965 243.083 505.426C242.192 504.887 241.505 504.113 241.02 503.105C240.536 502.098 240.294 500.918 240.294 499.566C240.294 497.473 240.817 495.844 241.864 494.68C242.911 493.508 244.364 492.922 246.224 492.922C248.02 492.922 249.446 493.52 250.501 494.715C251.563 495.91 252.095 497.527 252.095 499.566ZM242.31 499.566C242.31 501.207 242.638 502.457 243.294 503.316C243.95 504.176 244.915 504.605 246.188 504.605C247.462 504.605 248.427 504.18 249.083 503.328C249.747 502.469 250.079 501.215 250.079 499.566C250.079 497.934 249.747 496.695 249.083 495.852C248.427 495 247.454 494.574 246.165 494.574C244.892 494.574 243.931 494.992 243.282 495.828C242.634 496.664 242.31 497.91 242.31 499.566ZM264.546 506V497.691C264.546 496.645 264.307 495.863 263.831 495.348C263.354 494.832 262.608 494.574 261.592 494.574C260.249 494.574 259.264 494.938 258.639 495.664C258.014 496.391 257.702 497.59 257.702 499.262V506H255.757V493.156H257.339L257.655 494.914H257.749C258.147 494.281 258.706 493.793 259.425 493.449C260.143 493.098 260.944 492.922 261.827 492.922C263.374 492.922 264.538 493.297 265.319 494.047C266.1 494.789 266.491 495.98 266.491 497.621V506H264.546ZM279.024 502.496C279.024 503.691 278.579 504.613 277.688 505.262C276.797 505.91 275.547 506.234 273.938 506.234C272.235 506.234 270.907 505.965 269.954 505.426V503.621C270.571 503.934 271.231 504.18 271.934 504.359C272.645 504.539 273.329 504.629 273.985 504.629C275 504.629 275.782 504.469 276.329 504.148C276.875 503.82 277.149 503.324 277.149 502.66C277.149 502.16 276.93 501.734 276.493 501.383C276.063 501.023 275.219 500.602 273.961 500.117C272.766 499.672 271.915 499.285 271.407 498.957C270.907 498.621 270.532 498.242 270.282 497.82C270.04 497.398 269.918 496.895 269.918 496.309C269.918 495.262 270.344 494.438 271.196 493.836C272.047 493.227 273.215 492.922 274.7 492.922C276.082 492.922 277.434 493.203 278.754 493.766L278.063 495.348C276.774 494.816 275.606 494.551 274.559 494.551C273.637 494.551 272.942 494.695 272.473 494.984C272.004 495.273 271.77 495.672 271.77 496.18C271.77 496.523 271.856 496.816 272.028 497.059C272.207 497.301 272.493 497.531 272.883 497.75C273.274 497.969 274.024 498.285 275.133 498.699C276.657 499.254 277.684 499.812 278.215 500.375C278.754 500.938 279.024 501.645 279.024 502.496ZM294.703 494.668H291.434V506H289.488V494.668H287.191V493.789L289.488 493.086V492.371C289.488 489.215 290.867 487.637 293.625 487.637C294.305 487.637 295.102 487.773 296.016 488.047L295.512 489.605C294.762 489.363 294.121 489.242 293.59 489.242C292.855 489.242 292.312 489.488 291.961 489.98C291.609 490.465 291.434 491.246 291.434 492.324V493.156H294.703V494.668ZM308.373 499.566C308.373 501.66 307.845 503.297 306.791 504.477C305.736 505.648 304.279 506.234 302.42 506.234C301.271 506.234 300.252 505.965 299.361 505.426C298.47 504.887 297.783 504.113 297.299 503.105C296.814 502.098 296.572 500.918 296.572 499.566C296.572 497.473 297.095 495.844 298.142 494.68C299.189 493.508 300.642 492.922 302.502 492.922C304.299 492.922 305.724 493.52 306.779 494.715C307.842 495.91 308.373 497.527 308.373 499.566ZM298.588 499.566C298.588 501.207 298.916 502.457 299.572 503.316C300.228 504.176 301.193 504.605 302.467 504.605C303.74 504.605 304.705 504.18 305.361 503.328C306.025 502.469 306.357 501.215 306.357 499.566C306.357 497.934 306.025 496.695 305.361 495.852C304.705 495 303.732 494.574 302.443 494.574C301.17 494.574 300.209 494.992 299.56 495.828C298.912 496.664 298.588 497.91 298.588 499.566ZM317.894 492.922C318.464 492.922 318.976 492.969 319.429 493.062L319.16 494.867C318.628 494.75 318.16 494.691 317.753 494.691C316.714 494.691 315.824 495.113 315.082 495.957C314.347 496.801 313.98 497.852 313.98 499.109V506H312.035V493.156H313.64L313.863 495.535H313.957C314.433 494.699 315.007 494.055 315.679 493.602C316.351 493.148 317.089 492.922 317.894 492.922ZM326.507 493.156H328.593L331.405 500.48C332.022 502.152 332.405 503.359 332.554 504.102H332.647C332.749 503.703 332.96 503.023 333.28 502.062C333.608 501.094 334.671 498.125 336.468 493.156H338.554L333.034 507.781C332.487 509.227 331.847 510.25 331.112 510.852C330.386 511.461 329.491 511.766 328.429 511.766C327.835 511.766 327.249 511.699 326.671 511.566V510.008C327.101 510.102 327.581 510.148 328.112 510.148C329.448 510.148 330.401 509.398 330.972 507.898L331.687 506.07L326.507 493.156ZM351.966 499.566C351.966 501.66 351.438 503.297 350.384 504.477C349.329 505.648 347.872 506.234 346.013 506.234C344.864 506.234 343.845 505.965 342.954 505.426C342.063 504.887 341.376 504.113 340.891 503.105C340.407 502.098 340.165 500.918 340.165 499.566C340.165 497.473 340.688 495.844 341.735 494.68C342.782 493.508 344.235 492.922 346.095 492.922C347.891 492.922 349.317 493.52 350.372 494.715C351.434 495.91 351.966 497.527 351.966 499.566ZM342.18 499.566C342.18 501.207 342.509 502.457 343.165 503.316C343.821 504.176 344.786 504.605 346.059 504.605C347.333 504.605 348.298 504.18 348.954 503.328C349.618 502.469 349.95 501.215 349.95 499.566C349.95 497.934 349.618 496.695 348.954 495.852C348.298 495 347.325 494.574 346.036 494.574C344.763 494.574 343.802 494.992 343.153 495.828C342.505 496.664 342.18 497.91 342.18 499.566ZM357.456 493.156V501.488C357.456 502.535 357.694 503.316 358.17 503.832C358.647 504.348 359.393 504.605 360.409 504.605C361.753 504.605 362.733 504.238 363.35 503.504C363.975 502.77 364.288 501.57 364.288 499.906V493.156H366.233V506H364.628L364.346 504.277H364.241C363.842 504.91 363.288 505.395 362.577 505.73C361.874 506.066 361.069 506.234 360.163 506.234C358.6 506.234 357.428 505.863 356.647 505.121C355.874 504.379 355.487 503.191 355.487 501.559V493.156H357.456ZM376.469 492.922C377.039 492.922 377.551 492.969 378.004 493.062L377.735 494.867C377.203 494.75 376.735 494.691 376.328 494.691C375.289 494.691 374.399 495.113 373.657 495.957C372.922 496.801 372.555 497.852 372.555 499.109V506H370.61V493.156H372.215L372.438 495.535H372.532C373.008 494.699 373.582 494.055 374.254 493.602C374.926 493.148 375.664 492.922 376.469 492.922ZM393.098 492.945C394.785 492.945 396.094 493.523 397.023 494.68C397.961 495.828 398.43 497.457 398.43 499.566C398.43 501.676 397.957 503.316 397.012 504.488C396.074 505.652 394.769 506.234 393.098 506.234C392.262 506.234 391.496 506.082 390.801 505.777C390.113 505.465 389.535 504.988 389.066 504.348H388.926L388.515 506H387.121V487.766H389.066V492.195C389.066 493.188 389.035 494.078 388.973 494.867H389.066C389.973 493.586 391.316 492.945 393.098 492.945ZM392.816 494.574C391.488 494.574 390.531 494.957 389.945 495.723C389.359 496.48 389.066 497.762 389.066 499.566C389.066 501.371 389.367 502.664 389.969 503.445C390.57 504.219 391.535 504.605 392.863 504.605C394.058 504.605 394.949 504.172 395.535 503.305C396.121 502.43 396.414 501.176 396.414 499.543C396.414 497.871 396.121 496.625 395.535 495.805C394.949 494.984 394.043 494.574 392.816 494.574ZM403.908 493.156V501.488C403.908 502.535 404.146 503.316 404.623 503.832C405.099 504.348 405.845 504.605 406.861 504.605C408.205 504.605 409.185 504.238 409.802 503.504C410.427 502.77 410.74 501.57 410.74 499.906V493.156H412.685V506H411.08L410.798 504.277H410.693C410.295 504.91 409.74 505.395 409.029 505.73C408.326 506.066 407.521 506.234 406.615 506.234C405.052 506.234 403.88 505.863 403.099 505.121C402.326 504.379 401.939 503.191 401.939 501.559V493.156H403.908ZM419.007 506H417.062V493.156H419.007V506ZM416.898 489.676C416.898 489.23 417.007 488.906 417.226 488.703C417.445 488.492 417.718 488.387 418.046 488.387C418.359 488.387 418.628 488.492 418.855 488.703C419.081 488.914 419.195 489.238 419.195 489.676C419.195 490.113 419.081 490.441 418.855 490.66C418.628 490.871 418.359 490.977 418.046 490.977C417.718 490.977 417.445 490.871 417.226 490.66C417.007 490.441 416.898 490.113 416.898 489.676ZM431.657 502.496C431.657 503.691 431.212 504.613 430.321 505.262C429.431 505.91 428.181 506.234 426.571 506.234C424.868 506.234 423.54 505.965 422.587 505.426V503.621C423.204 503.934 423.864 504.18 424.568 504.359C425.278 504.539 425.962 504.629 426.618 504.629C427.634 504.629 428.415 504.469 428.962 504.148C429.509 503.82 429.782 503.324 429.782 502.66C429.782 502.16 429.564 501.734 429.126 501.383C428.696 501.023 427.853 500.602 426.595 500.117C425.4 499.672 424.548 499.285 424.04 498.957C423.54 498.621 423.165 498.242 422.915 497.82C422.673 497.398 422.552 496.895 422.552 496.309C422.552 495.262 422.978 494.438 423.829 493.836C424.681 493.227 425.849 492.922 427.333 492.922C428.716 492.922 430.068 493.203 431.388 493.766L430.696 495.348C429.407 494.816 428.239 494.551 427.193 494.551C426.271 494.551 425.575 494.695 425.107 494.984C424.638 495.273 424.403 495.672 424.403 496.18C424.403 496.523 424.489 496.816 424.661 497.059C424.841 497.301 425.126 497.531 425.517 497.75C425.907 497.969 426.657 498.285 427.767 498.699C429.29 499.254 430.318 499.812 430.849 500.375C431.388 500.938 431.657 501.645 431.657 502.496ZM443.862 506V497.691C443.862 496.645 443.624 495.863 443.147 495.348C442.671 494.832 441.925 494.574 440.909 494.574C439.565 494.574 438.581 494.938 437.956 495.664C437.331 496.391 437.018 497.59 437.018 499.262V506H435.073V493.156H436.655L436.972 494.914H437.065C437.464 494.281 438.022 493.793 438.741 493.449C439.46 493.098 440.261 492.922 441.143 492.922C442.69 492.922 443.854 493.297 444.636 494.047C445.417 494.789 445.807 495.98 445.807 497.621V506H443.862ZM455.481 506.234C453.583 506.234 452.083 505.656 450.981 504.5C449.887 503.344 449.34 501.738 449.34 499.684C449.34 497.613 449.848 495.969 450.864 494.75C451.887 493.531 453.258 492.922 454.977 492.922C456.587 492.922 457.86 493.453 458.797 494.516C459.735 495.57 460.204 496.965 460.204 498.699V499.93H451.356C451.395 501.438 451.774 502.582 452.493 503.363C453.219 504.145 454.239 504.535 455.551 504.535C456.934 504.535 458.301 504.246 459.653 503.668V505.402C458.965 505.699 458.313 505.91 457.696 506.035C457.087 506.168 456.348 506.234 455.481 506.234ZM454.954 494.551C453.922 494.551 453.098 494.887 452.481 495.559C451.872 496.23 451.512 497.16 451.403 498.348H458.118C458.118 497.121 457.844 496.184 457.297 495.535C456.751 494.879 455.969 494.551 454.954 494.551ZM472.057 502.496C472.057 503.691 471.612 504.613 470.721 505.262C469.83 505.91 468.58 506.234 466.971 506.234C465.268 506.234 463.94 505.965 462.987 505.426V503.621C463.604 503.934 464.264 504.18 464.967 504.359C465.678 504.539 466.362 504.629 467.018 504.629C468.034 504.629 468.815 504.469 469.362 504.148C469.909 503.82 470.182 503.324 470.182 502.66C470.182 502.16 469.963 501.734 469.526 501.383C469.096 501.023 468.252 500.602 466.995 500.117C465.799 499.672 464.948 499.285 464.44 498.957C463.94 498.621 463.565 498.242 463.315 497.82C463.073 497.398 462.952 496.895 462.952 496.309C462.952 495.262 463.377 494.438 464.229 493.836C465.08 493.227 466.248 492.922 467.733 492.922C469.116 492.922 470.467 493.203 471.788 493.766L471.096 495.348C469.807 494.816 468.639 494.551 467.592 494.551C466.67 494.551 465.975 494.695 465.506 494.984C465.038 495.273 464.803 495.672 464.803 496.18C464.803 496.523 464.889 496.816 465.061 497.059C465.241 497.301 465.526 497.531 465.916 497.75C466.307 497.969 467.057 498.285 468.166 498.699C469.69 499.254 470.717 499.812 471.248 500.375C471.788 500.938 472.057 501.645 472.057 502.496ZM483.758 502.496C483.758 503.691 483.313 504.613 482.422 505.262C481.531 505.91 480.281 506.234 478.672 506.234C476.969 506.234 475.641 505.965 474.688 505.426V503.621C475.305 503.934 475.965 504.18 476.668 504.359C477.379 504.539 478.063 504.629 478.719 504.629C479.735 504.629 480.516 504.469 481.063 504.148C481.61 503.82 481.883 503.324 481.883 502.66C481.883 502.16 481.664 501.734 481.227 501.383C480.797 501.023 479.953 500.602 478.695 500.117C477.5 499.672 476.649 499.285 476.141 498.957C475.641 498.621 475.266 498.242 475.016 497.82C474.774 497.398 474.652 496.895 474.652 496.309C474.652 495.262 475.078 494.438 475.93 493.836C476.781 493.227 477.949 492.922 479.434 492.922C480.817 492.922 482.168 493.203 483.488 493.766L482.797 495.348C481.508 494.816 480.34 494.551 479.293 494.551C478.371 494.551 477.676 494.695 477.207 494.984C476.738 495.273 476.504 495.672 476.504 496.18C476.504 496.523 476.59 496.816 476.762 497.059C476.942 497.301 477.227 497.531 477.617 497.75C478.008 497.969 478.758 498.285 479.867 498.699C481.391 499.254 482.418 499.812 482.949 500.375C483.488 500.938 483.758 501.645 483.758 502.496ZM7.85156 534.668H4.58203V546H2.63672V534.668H0.339844V533.789L2.63672 533.086V532.371C2.63672 529.215 4.01562 527.637 6.77344 527.637C7.45312 527.637 8.25 527.773 9.16406 528.047L8.66016 529.605C7.91016 529.363 7.26953 529.242 6.73828 529.242C6.00391 529.242 5.46094 529.488 5.10938 529.98C4.75781 530.465 4.58203 531.246 4.58203 532.324V533.156H7.85156V534.668ZM16.2947 532.922C16.865 532.922 17.3767 532.969 17.8298 533.062L17.5603 534.867C17.0291 534.75 16.5603 534.691 16.1541 534.691C15.115 534.691 14.2244 535.113 13.4822 535.957C12.7478 536.801 12.3806 537.852 12.3806 539.109V546H10.4353V533.156H12.0408L12.2634 535.535H12.3572C12.8337 534.699 13.408 534.055 14.0798 533.602C14.7517 533.148 15.49 532.922 16.2947 532.922ZM31.5581 539.566C31.5581 541.66 31.0308 543.297 29.9761 544.477C28.9214 545.648 27.4644 546.234 25.605 546.234C24.4566 546.234 23.437 545.965 22.5464 545.426C21.6558 544.887 20.9683 544.113 20.4839 543.105C19.9995 542.098 19.7573 540.918 19.7573 539.566C19.7573 537.473 20.2808 535.844 21.3277 534.68C22.3745 533.508 23.8277 532.922 25.687 532.922C27.4839 532.922 28.9097 533.52 29.9644 534.715C31.0269 535.91 31.5581 537.527 31.5581 539.566ZM21.773 539.566C21.773 541.207 22.1011 542.457 22.7573 543.316C23.4136 544.176 24.3784 544.605 25.6519 544.605C26.9253 544.605 27.8902 544.18 28.5464 543.328C29.2105 542.469 29.5425 541.215 29.5425 539.566C29.5425 537.934 29.2105 536.695 28.5464 535.852C27.8902 535 26.9175 534.574 25.6284 534.574C24.355 534.574 23.3941 534.992 22.7456 535.828C22.0972 536.664 21.773 537.91 21.773 539.566ZM51.5911 546V537.645C51.5911 536.621 51.3723 535.855 50.9348 535.348C50.4973 534.832 49.8177 534.574 48.8958 534.574C47.6848 534.574 46.7903 534.922 46.2122 535.617C45.6341 536.312 45.345 537.383 45.345 538.828V546H43.3997V537.645C43.3997 536.621 43.1809 535.855 42.7434 535.348C42.3059 534.832 41.6223 534.574 40.6927 534.574C39.4739 534.574 38.5794 534.941 38.0091 535.676C37.4466 536.402 37.1653 537.598 37.1653 539.262V546H35.22V533.156H36.802L37.1184 534.914H37.2122C37.5794 534.289 38.095 533.801 38.7591 533.449C39.4309 533.098 40.1809 532.922 41.0091 532.922C43.0169 532.922 44.3294 533.648 44.9466 535.102H45.0403C45.4231 534.43 45.9778 533.898 46.7044 533.508C47.4309 533.117 48.2591 532.922 49.1888 532.922C50.6419 532.922 51.7278 533.297 52.4466 534.047C53.1731 534.789 53.5364 535.98 53.5364 537.621V546H51.5911ZM73.0125 544.277H72.907C72.0086 545.582 70.6648 546.234 68.8758 546.234C67.1961 546.234 65.8875 545.66 64.95 544.512C64.0203 543.363 63.5555 541.73 63.5555 539.613C63.5555 537.496 64.0242 535.852 64.9617 534.68C65.8992 533.508 67.2039 532.922 68.8758 532.922C70.618 532.922 71.9539 533.555 72.8836 534.82H73.0359L72.9539 533.895L72.907 532.992V527.766H74.8523V546H73.2703L73.0125 544.277ZM69.1219 544.605C70.45 544.605 71.4109 544.246 72.0047 543.527C72.6063 542.801 72.907 541.633 72.907 540.023V539.613C72.907 537.793 72.6023 536.496 71.993 535.723C71.3914 534.941 70.4266 534.551 69.0984 534.551C67.9578 534.551 67.0828 534.996 66.4734 535.887C65.8719 536.77 65.5711 538.02 65.5711 539.637C65.5711 541.277 65.8719 542.516 66.4734 543.352C67.075 544.188 67.9578 544.605 69.1219 544.605ZM84.6548 546.234C82.7564 546.234 81.2564 545.656 80.1548 544.5C79.0611 543.344 78.5142 541.738 78.5142 539.684C78.5142 537.613 79.022 535.969 80.0377 534.75C81.0611 533.531 82.4322 532.922 84.1509 532.922C85.7603 532.922 87.0338 533.453 87.9713 534.516C88.9088 535.57 89.3775 536.965 89.3775 538.699V539.93H80.5298C80.5689 541.438 80.9478 542.582 81.6666 543.363C82.3931 544.145 83.4127 544.535 84.7252 544.535C86.108 544.535 87.4752 544.246 88.8267 543.668V545.402C88.1392 545.699 87.4869 545.91 86.8697 546.035C86.2603 546.168 85.522 546.234 84.6548 546.234ZM84.1275 534.551C83.0963 534.551 82.272 534.887 81.6548 535.559C81.0455 536.23 80.6861 537.16 80.5767 538.348H87.2916C87.2916 537.121 87.0181 536.184 86.4713 535.535C85.9244 534.879 85.1431 534.551 84.1275 534.551ZM101.231 542.496C101.231 543.691 100.785 544.613 99.8948 545.262C99.0042 545.91 97.7542 546.234 96.1448 546.234C94.4417 546.234 93.1136 545.965 92.1605 545.426V543.621C92.7777 543.934 93.4378 544.18 94.1409 544.359C94.8519 544.539 95.5355 544.629 96.1917 544.629C97.2073 544.629 97.9886 544.469 98.5355 544.148C99.0823 543.82 99.3558 543.324 99.3558 542.66C99.3558 542.16 99.137 541.734 98.6995 541.383C98.2698 541.023 97.4261 540.602 96.1683 540.117C94.973 539.672 94.1214 539.285 93.6136 538.957C93.1136 538.621 92.7386 538.242 92.4886 537.82C92.2464 537.398 92.1253 536.895 92.1253 536.309C92.1253 535.262 92.5511 534.438 93.4027 533.836C94.2542 533.227 95.4222 532.922 96.9066 532.922C98.2894 532.922 99.6409 533.203 100.961 533.766L100.27 535.348C98.9808 534.816 97.8128 534.551 96.7659 534.551C95.8441 534.551 95.1488 534.695 94.68 534.984C94.2113 535.273 93.9769 535.672 93.9769 536.18C93.9769 536.523 94.0628 536.816 94.2347 537.059C94.4144 537.301 94.6995 537.531 95.0902 537.75C95.4808 537.969 96.2308 538.285 97.3402 538.699C98.8636 539.254 99.8909 539.812 100.422 540.375C100.961 540.938 101.231 541.645 101.231 542.496ZM106.592 546H104.647V533.156H106.592V546ZM104.482 529.676C104.482 529.23 104.592 528.906 104.811 528.703C105.029 528.492 105.303 528.387 105.631 528.387C105.943 528.387 106.213 528.492 106.44 528.703C106.666 528.914 106.779 529.238 106.779 529.676C106.779 530.113 106.666 530.441 106.44 530.66C106.213 530.871 105.943 530.977 105.631 530.977C105.303 530.977 105.029 530.871 104.811 530.66C104.592 530.441 104.482 530.113 104.482 529.676ZM121.469 533.156V534.387L119.09 534.668C119.308 534.941 119.504 535.301 119.676 535.746C119.848 536.184 119.933 536.68 119.933 537.234C119.933 538.492 119.504 539.496 118.644 540.246C117.785 540.996 116.605 541.371 115.105 541.371C114.723 541.371 114.363 541.34 114.027 541.277C113.199 541.715 112.785 542.266 112.785 542.93C112.785 543.281 112.93 543.543 113.219 543.715C113.508 543.879 114.004 543.961 114.707 543.961H116.98C118.371 543.961 119.437 544.254 120.18 544.84C120.93 545.426 121.305 546.277 121.305 547.395C121.305 548.816 120.734 549.898 119.594 550.641C118.453 551.391 116.789 551.766 114.601 551.766C112.922 551.766 111.625 551.453 110.711 550.828C109.805 550.203 109.351 549.32 109.351 548.18C109.351 547.398 109.601 546.723 110.101 546.152C110.601 545.582 111.305 545.195 112.211 544.992C111.883 544.844 111.605 544.613 111.379 544.301C111.16 543.988 111.051 543.625 111.051 543.211C111.051 542.742 111.176 542.332 111.426 541.98C111.676 541.629 112.07 541.289 112.609 540.961C111.945 540.688 111.402 540.223 110.98 539.566C110.566 538.91 110.359 538.16 110.359 537.316C110.359 535.91 110.781 534.828 111.625 534.07C112.469 533.305 113.664 532.922 115.211 532.922C115.883 532.922 116.488 533 117.027 533.156H121.469ZM111.226 548.156C111.226 548.852 111.519 549.379 112.105 549.738C112.691 550.098 113.531 550.277 114.625 550.277C116.258 550.277 117.465 550.031 118.246 549.539C119.035 549.055 119.43 548.395 119.43 547.559C119.43 546.863 119.215 546.379 118.785 546.105C118.355 545.84 117.547 545.707 116.359 545.707H114.027C113.144 545.707 112.457 545.918 111.965 546.34C111.473 546.762 111.226 547.367 111.226 548.156ZM112.281 537.27C112.281 538.168 112.535 538.848 113.043 539.309C113.551 539.77 114.258 540 115.164 540C117.062 540 118.012 539.078 118.012 537.234C118.012 535.305 117.051 534.34 115.129 534.34C114.215 534.34 113.512 534.586 113.019 535.078C112.527 535.57 112.281 536.301 112.281 537.27ZM133.134 546V537.691C133.134 536.645 132.896 535.863 132.42 535.348C131.943 534.832 131.197 534.574 130.181 534.574C128.838 534.574 127.853 534.938 127.228 535.664C126.603 536.391 126.291 537.59 126.291 539.262V546H124.345V533.156H125.927L126.244 534.914H126.338C126.736 534.281 127.295 533.793 128.013 533.449C128.732 533.098 129.533 532.922 130.416 532.922C131.963 532.922 133.127 533.297 133.908 534.047C134.689 534.789 135.08 535.98 135.08 537.621V546H133.134ZM151.661 532.922C152.232 532.922 152.743 532.969 153.196 533.062L152.927 534.867C152.396 534.75 151.927 534.691 151.521 534.691C150.482 534.691 149.591 535.113 148.849 535.957C148.114 536.801 147.747 537.852 147.747 539.109V546H145.802V533.156H147.407L147.63 535.535H147.724C148.2 534.699 148.775 534.055 149.446 533.602C150.118 533.148 150.857 532.922 151.661 532.922ZM161.265 546.234C159.366 546.234 157.866 545.656 156.765 544.5C155.671 543.344 155.124 541.738 155.124 539.684C155.124 537.613 155.632 535.969 156.647 534.75C157.671 533.531 159.042 532.922 160.761 532.922C162.37 532.922 163.643 533.453 164.581 534.516C165.518 535.57 165.987 536.965 165.987 538.699V539.93H157.14C157.179 541.438 157.557 542.582 158.276 543.363C159.003 544.145 160.022 544.535 161.335 544.535C162.718 544.535 164.085 544.246 165.436 543.668V545.402C164.749 545.699 164.097 545.91 163.479 546.035C162.87 546.168 162.132 546.234 161.265 546.234ZM160.737 534.551C159.706 534.551 158.882 534.887 158.265 535.559C157.655 536.23 157.296 537.16 157.186 538.348H163.901C163.901 537.121 163.628 536.184 163.081 535.535C162.534 534.879 161.753 534.551 160.737 534.551ZM172.368 546L167.493 533.156H169.579L172.344 540.773C172.969 542.555 173.337 543.711 173.446 544.242H173.54C173.626 543.828 173.895 542.973 174.348 541.676C174.809 540.371 175.837 537.531 177.43 533.156H179.516L174.641 546H172.368ZM183.764 546H181.819V533.156H183.764V546ZM181.655 529.676C181.655 529.23 181.764 528.906 181.983 528.703C182.202 528.492 182.475 528.387 182.803 528.387C183.116 528.387 183.385 528.492 183.612 528.703C183.838 528.914 183.952 529.238 183.952 529.676C183.952 530.113 183.838 530.441 183.612 530.66C183.385 530.871 183.116 530.977 182.803 530.977C182.475 530.977 182.202 530.871 181.983 530.66C181.764 530.441 181.655 530.113 181.655 529.676ZM193.555 546.234C191.656 546.234 190.156 545.656 189.055 544.5C187.961 543.344 187.414 541.738 187.414 539.684C187.414 537.613 187.922 535.969 188.938 534.75C189.961 533.531 191.332 532.922 193.051 532.922C194.66 532.922 195.934 533.453 196.871 534.516C197.809 535.57 198.277 536.965 198.277 538.699V539.93H189.43C189.469 541.438 189.848 542.582 190.567 543.363C191.293 544.145 192.313 544.535 193.625 544.535C195.008 544.535 196.375 544.246 197.727 543.668V545.402C197.039 545.699 196.387 545.91 195.77 546.035C195.16 546.168 194.422 546.234 193.555 546.234ZM193.027 534.551C191.996 534.551 191.172 534.887 190.555 535.559C189.945 536.23 189.586 537.16 189.477 538.348H196.192C196.192 537.121 195.918 536.184 195.371 535.535C194.824 534.879 194.043 534.551 193.027 534.551ZM212.334 546L209.978 538.465C209.83 538.004 209.553 536.957 209.146 535.324H209.053C208.74 536.691 208.467 537.746 208.232 538.488L205.807 546H203.557L200.053 533.156H202.092C202.92 536.383 203.549 538.84 203.978 540.527C204.416 542.215 204.666 543.352 204.728 543.938H204.822C204.908 543.492 205.045 542.918 205.232 542.215C205.428 541.504 205.596 540.941 205.736 540.527L208.092 533.156H210.201L212.498 540.527C212.935 541.871 213.232 543 213.389 543.914H213.482C213.514 543.633 213.596 543.199 213.728 542.613C213.869 542.027 214.685 538.875 216.178 533.156H218.193L214.643 546H212.334ZM231.388 544.629C231.732 544.629 232.064 544.605 232.384 544.559C232.705 544.504 232.958 544.449 233.146 544.395V545.883C232.935 545.984 232.622 546.066 232.208 546.129C231.802 546.199 231.435 546.234 231.107 546.234C228.622 546.234 227.38 544.926 227.38 542.309V534.668H225.54V533.73L227.38 532.922L228.201 530.18H229.326V533.156H233.052V534.668H229.326V542.227C229.326 543 229.509 543.594 229.876 544.008C230.244 544.422 230.747 544.629 231.388 544.629ZM247.05 539.566C247.05 541.66 246.523 543.297 245.468 544.477C244.413 545.648 242.956 546.234 241.097 546.234C239.948 546.234 238.929 545.965 238.038 545.426C237.148 544.887 236.46 544.113 235.976 543.105C235.491 542.098 235.249 540.918 235.249 539.566C235.249 537.473 235.773 535.844 236.82 534.68C237.866 533.508 239.32 532.922 241.179 532.922C242.976 532.922 244.402 533.52 245.456 534.715C246.519 535.91 247.05 537.527 247.05 539.566ZM237.265 539.566C237.265 541.207 237.593 542.457 238.249 543.316C238.905 544.176 239.87 544.605 241.144 544.605C242.417 544.605 243.382 544.18 244.038 543.328C244.702 542.469 245.034 541.215 245.034 539.566C245.034 537.934 244.702 536.695 244.038 535.852C243.382 535 242.409 534.574 241.12 534.574C239.847 534.574 238.886 534.992 238.238 535.828C237.589 536.664 237.265 537.91 237.265 539.566ZM263.163 532.945C264.85 532.945 266.159 533.523 267.089 534.68C268.026 535.828 268.495 537.457 268.495 539.566C268.495 541.676 268.022 543.316 267.077 544.488C266.139 545.652 264.835 546.234 263.163 546.234C262.327 546.234 261.561 546.082 260.866 545.777C260.178 545.465 259.6 544.988 259.132 544.348H258.991L258.581 546H257.186V527.766H259.132V532.195C259.132 533.188 259.1 534.078 259.038 534.867H259.132C260.038 533.586 261.382 532.945 263.163 532.945ZM262.882 534.574C261.553 534.574 260.596 534.957 260.01 535.723C259.425 536.48 259.132 537.762 259.132 539.566C259.132 541.371 259.432 542.664 260.034 543.445C260.635 544.219 261.6 544.605 262.928 544.605C264.124 544.605 265.014 544.172 265.6 543.305C266.186 542.43 266.479 541.176 266.479 539.543C266.479 537.871 266.186 536.625 265.6 535.805C265.014 534.984 264.108 534.574 262.882 534.574ZM274.09 546H272.145V533.156H274.09V546ZM271.981 529.676C271.981 529.23 272.09 528.906 272.309 528.703C272.528 528.492 272.801 528.387 273.129 528.387C273.442 528.387 273.711 528.492 273.938 528.703C274.165 528.914 274.278 529.238 274.278 529.676C274.278 530.113 274.165 530.441 273.938 530.66C273.711 530.871 273.442 530.977 273.129 530.977C272.801 530.977 272.528 530.871 272.309 530.66C272.09 530.441 271.981 530.113 271.981 529.676ZM288.967 533.156V534.387L286.588 534.668C286.807 534.941 287.002 535.301 287.174 535.746C287.346 536.184 287.432 536.68 287.432 537.234C287.432 538.492 287.002 539.496 286.143 540.246C285.283 540.996 284.104 541.371 282.604 541.371C282.221 541.371 281.862 541.34 281.526 541.277C280.698 541.715 280.283 542.266 280.283 542.93C280.283 543.281 280.428 543.543 280.717 543.715C281.006 543.879 281.502 543.961 282.205 543.961H284.479C285.869 543.961 286.936 544.254 287.678 544.84C288.428 545.426 288.803 546.277 288.803 547.395C288.803 548.816 288.233 549.898 287.092 550.641C285.951 551.391 284.287 551.766 282.1 551.766C280.42 551.766 279.123 551.453 278.209 550.828C277.303 550.203 276.85 549.32 276.85 548.18C276.85 547.398 277.1 546.723 277.6 546.152C278.1 545.582 278.803 545.195 279.709 544.992C279.381 544.844 279.104 544.613 278.877 544.301C278.658 543.988 278.549 543.625 278.549 543.211C278.549 542.742 278.674 542.332 278.924 541.98C279.174 541.629 279.569 541.289 280.108 540.961C279.444 540.688 278.901 540.223 278.479 539.566C278.065 538.91 277.858 538.16 277.858 537.316C277.858 535.91 278.28 534.828 279.123 534.07C279.967 533.305 281.162 532.922 282.709 532.922C283.381 532.922 283.987 533 284.526 533.156H288.967ZM278.725 548.156C278.725 548.852 279.018 549.379 279.604 549.738C280.19 550.098 281.03 550.277 282.123 550.277C283.756 550.277 284.963 550.031 285.744 549.539C286.533 549.055 286.928 548.395 286.928 547.559C286.928 546.863 286.713 546.379 286.283 546.105C285.854 545.84 285.045 545.707 283.858 545.707H281.526C280.643 545.707 279.955 545.918 279.463 546.34C278.971 546.762 278.725 547.367 278.725 548.156ZM279.78 537.27C279.78 538.168 280.033 538.848 280.541 539.309C281.049 539.77 281.756 540 282.662 540C284.561 540 285.51 539.078 285.51 537.234C285.51 535.305 284.549 534.34 282.627 534.34C281.713 534.34 281.01 534.586 280.518 535.078C280.026 535.57 279.78 536.301 279.78 537.27ZM307.06 544.277H306.955C306.056 545.582 304.713 546.234 302.924 546.234C301.244 546.234 299.935 545.66 298.998 544.512C298.068 543.363 297.603 541.73 297.603 539.613C297.603 537.496 298.072 535.852 299.01 534.68C299.947 533.508 301.252 532.922 302.924 532.922C304.666 532.922 306.002 533.555 306.931 534.82H307.084L307.002 533.895L306.955 532.992V527.766H308.9V546H307.318L307.06 544.277ZM303.17 544.605C304.498 544.605 305.459 544.246 306.052 543.527C306.654 542.801 306.955 541.633 306.955 540.023V539.613C306.955 537.793 306.65 536.496 306.041 535.723C305.439 534.941 304.474 534.551 303.146 534.551C302.006 534.551 301.131 534.996 300.521 535.887C299.92 536.77 299.619 538.02 299.619 539.637C299.619 541.277 299.92 542.516 300.521 543.352C301.123 544.188 302.006 544.605 303.17 544.605ZM321.175 546L320.789 544.172H320.695C320.054 544.977 319.414 545.523 318.773 545.812C318.14 546.094 317.347 546.234 316.394 546.234C315.121 546.234 314.121 545.906 313.394 545.25C312.675 544.594 312.316 543.66 312.316 542.449C312.316 539.855 314.39 538.496 318.539 538.371L320.718 538.301V537.504C320.718 536.496 320.5 535.754 320.062 535.277C319.632 534.793 318.941 534.551 317.988 534.551C316.918 534.551 315.707 534.879 314.355 535.535L313.757 534.047C314.39 533.703 315.082 533.434 315.832 533.238C316.589 533.043 317.347 532.945 318.105 532.945C319.636 532.945 320.769 533.285 321.503 533.965C322.246 534.645 322.617 535.734 322.617 537.234V546H321.175ZM316.781 544.629C317.992 544.629 318.941 544.297 319.628 543.633C320.324 542.969 320.671 542.039 320.671 540.844V539.684L318.726 539.766C317.179 539.82 316.062 540.062 315.375 540.492C314.695 540.914 314.355 541.574 314.355 542.473C314.355 543.176 314.566 543.711 314.988 544.078C315.418 544.445 316.015 544.629 316.781 544.629ZM331.025 544.629C331.368 544.629 331.7 544.605 332.021 544.559C332.341 544.504 332.595 544.449 332.783 544.395V545.883C332.572 545.984 332.259 546.066 331.845 546.129C331.439 546.199 331.072 546.234 330.743 546.234C328.259 546.234 327.017 544.926 327.017 542.309V534.668H325.177V533.73L327.017 532.922L327.837 530.18H328.962V533.156H332.689V534.668H328.962V542.227C328.962 543 329.146 543.594 329.513 544.008C329.88 544.422 330.384 544.629 331.025 544.629ZM343.499 546L343.112 544.172H343.019C342.378 544.977 341.737 545.523 341.097 545.812C340.464 546.094 339.671 546.234 338.718 546.234C337.444 546.234 336.444 545.906 335.718 545.25C334.999 544.594 334.64 543.66 334.64 542.449C334.64 539.855 336.714 538.496 340.862 538.371L343.042 538.301V537.504C343.042 536.496 342.823 535.754 342.386 535.277C341.956 534.793 341.265 534.551 340.312 534.551C339.241 534.551 338.03 534.879 336.679 535.535L336.081 534.047C336.714 533.703 337.405 533.434 338.155 533.238C338.913 533.043 339.671 532.945 340.429 532.945C341.96 532.945 343.093 533.285 343.827 533.965C344.569 534.645 344.94 535.734 344.94 537.234V546H343.499ZM339.105 544.629C340.315 544.629 341.265 544.297 341.952 543.633C342.647 542.969 342.995 542.039 342.995 540.844V539.684L341.05 539.766C339.503 539.82 338.386 540.062 337.698 540.492C337.019 540.914 336.679 541.574 336.679 542.473C336.679 543.176 336.89 543.711 337.312 544.078C337.741 544.445 338.339 544.629 339.105 544.629ZM363.96 542.496C363.96 543.691 363.514 544.613 362.624 545.262C361.733 545.91 360.483 546.234 358.874 546.234C357.17 546.234 355.842 545.965 354.889 545.426V543.621C355.506 543.934 356.167 544.18 356.87 544.359C357.581 544.539 358.264 544.629 358.92 544.629C359.936 544.629 360.717 544.469 361.264 544.148C361.811 543.82 362.085 543.324 362.085 542.66C362.085 542.16 361.866 541.734 361.428 541.383C360.999 541.023 360.155 540.602 358.897 540.117C357.702 539.672 356.85 539.285 356.342 538.957C355.842 538.621 355.467 538.242 355.217 537.82C354.975 537.398 354.854 536.895 354.854 536.309C354.854 535.262 355.28 534.438 356.131 533.836C356.983 533.227 358.151 532.922 359.635 532.922C361.018 532.922 362.37 533.203 363.69 533.766L362.999 535.348C361.71 534.816 360.542 534.551 359.495 534.551C358.573 534.551 357.878 534.695 357.409 534.984C356.94 535.273 356.706 535.672 356.706 536.18C356.706 536.523 356.792 536.816 356.963 537.059C357.143 537.301 357.428 537.531 357.819 537.75C358.21 537.969 358.96 538.285 360.069 538.699C361.592 539.254 362.62 539.812 363.151 540.375C363.69 540.938 363.96 541.645 363.96 542.496ZM378.461 539.566C378.461 541.66 377.934 543.297 376.879 544.477C375.825 545.648 374.367 546.234 372.508 546.234C371.36 546.234 370.34 545.965 369.45 545.426C368.559 544.887 367.871 544.113 367.387 543.105C366.903 542.098 366.66 540.918 366.66 539.566C366.66 537.473 367.184 535.844 368.231 534.68C369.278 533.508 370.731 532.922 372.59 532.922C374.387 532.922 375.813 533.52 376.867 534.715C377.93 535.91 378.461 537.527 378.461 539.566ZM368.676 539.566C368.676 541.207 369.004 542.457 369.66 543.316C370.317 544.176 371.282 544.605 372.555 544.605C373.828 544.605 374.793 544.18 375.45 543.328C376.114 542.469 376.446 541.215 376.446 539.566C376.446 537.934 376.114 536.695 375.45 535.852C374.793 535 373.821 534.574 372.532 534.574C371.258 534.574 370.297 534.992 369.649 535.828C369 536.664 368.676 537.91 368.676 539.566ZM384.068 546H382.123V527.766H384.068V546ZM390.262 533.156V541.488C390.262 542.535 390.5 543.316 390.976 543.832C391.453 544.348 392.199 544.605 393.215 544.605C394.558 544.605 395.539 544.238 396.156 543.504C396.781 542.77 397.094 541.57 397.094 539.906V533.156H399.039V546H397.433L397.152 544.277H397.047C396.648 544.91 396.094 545.395 395.383 545.73C394.68 546.066 393.875 546.234 392.969 546.234C391.406 546.234 390.234 545.863 389.453 545.121C388.68 544.379 388.293 543.191 388.293 541.559V533.156H390.262ZM407.564 544.629C407.908 544.629 408.24 544.605 408.56 544.559C408.88 544.504 409.134 544.449 409.322 544.395V545.883C409.111 545.984 408.798 546.066 408.384 546.129C407.978 546.199 407.611 546.234 407.283 546.234C404.798 546.234 403.556 544.926 403.556 542.309V534.668H401.716V533.73L403.556 532.922L404.377 530.18H405.502V533.156H409.228V534.668H405.502V542.227C405.502 543 405.685 543.594 406.052 544.008C406.42 544.422 406.923 544.629 407.564 544.629ZM414.085 546H412.14V533.156H414.085V546ZM411.976 529.676C411.976 529.23 412.085 528.906 412.304 528.703C412.523 528.492 412.796 528.387 413.124 528.387C413.437 528.387 413.706 528.492 413.933 528.703C414.16 528.914 414.273 529.238 414.273 529.676C414.273 530.113 414.16 530.441 413.933 530.66C413.706 530.871 413.437 530.977 413.124 530.977C412.796 530.977 412.523 530.871 412.304 530.66C412.085 530.441 411.976 530.113 411.976 529.676ZM429.536 539.566C429.536 541.66 429.009 543.297 427.954 544.477C426.9 545.648 425.443 546.234 423.583 546.234C422.435 546.234 421.415 545.965 420.525 545.426C419.634 544.887 418.946 544.113 418.462 543.105C417.978 542.098 417.735 540.918 417.735 539.566C417.735 537.473 418.259 535.844 419.306 534.68C420.353 533.508 421.806 532.922 423.665 532.922C425.462 532.922 426.888 533.52 427.943 534.715C429.005 535.91 429.536 537.527 429.536 539.566ZM419.751 539.566C419.751 541.207 420.079 542.457 420.735 543.316C421.392 544.176 422.357 544.605 423.63 544.605C424.903 544.605 425.868 544.18 426.525 543.328C427.189 542.469 427.521 541.215 427.521 539.566C427.521 537.934 427.189 536.695 426.525 535.852C425.868 535 424.896 534.574 423.607 534.574C422.333 534.574 421.372 534.992 420.724 535.828C420.075 536.664 419.751 537.91 419.751 539.566ZM441.987 546V537.691C441.987 536.645 441.749 535.863 441.272 535.348C440.796 534.832 440.05 534.574 439.034 534.574C437.69 534.574 436.706 534.938 436.081 535.664C435.456 536.391 435.143 537.59 435.143 539.262V546H433.198V533.156H434.78L435.097 534.914H435.19C435.589 534.281 436.147 533.793 436.866 533.449C437.585 533.098 438.386 532.922 439.268 532.922C440.815 532.922 441.979 533.297 442.761 534.047C443.542 534.789 443.932 535.98 443.932 537.621V546H441.987ZM456.465 542.496C456.465 543.691 456.02 544.613 455.13 545.262C454.239 545.91 452.989 546.234 451.38 546.234C449.676 546.234 448.348 545.965 447.395 545.426V543.621C448.012 543.934 448.672 544.18 449.376 544.359C450.087 544.539 450.77 544.629 451.426 544.629C452.442 544.629 453.223 544.469 453.77 544.148C454.317 543.82 454.59 543.324 454.59 542.66C454.59 542.16 454.372 541.734 453.934 541.383C453.505 541.023 452.661 540.602 451.403 540.117C450.208 539.672 449.356 539.285 448.848 538.957C448.348 538.621 447.973 538.242 447.723 537.82C447.481 537.398 447.36 536.895 447.36 536.309C447.36 535.262 447.786 534.438 448.637 533.836C449.489 533.227 450.657 532.922 452.141 532.922C453.524 532.922 454.876 533.203 456.196 533.766L455.505 535.348C454.215 534.816 453.047 534.551 452.001 534.551C451.079 534.551 450.383 534.695 449.915 534.984C449.446 535.273 449.212 535.672 449.212 536.18C449.212 536.523 449.297 536.816 449.469 537.059C449.649 537.301 449.934 537.531 450.325 537.75C450.715 537.969 451.465 538.285 452.575 538.699C454.098 539.254 455.126 539.812 455.657 540.375C456.196 540.938 456.465 541.645 456.465 542.496ZM459.6 544.758C459.6 544.234 459.717 543.84 459.952 543.574C460.194 543.301 460.538 543.164 460.983 543.164C461.436 543.164 461.788 543.301 462.038 543.574C462.295 543.84 462.424 544.234 462.424 544.758C462.424 545.266 462.295 545.656 462.038 545.93C461.78 546.203 461.428 546.34 460.983 546.34C460.584 546.34 460.252 546.219 459.987 545.977C459.729 545.727 459.6 545.32 459.6 544.758Z" fill="#B5B5B5"/>
<mask id="mask0_508_4795" style="mask-type:alpha" maskUnits="userSpaceOnUse" x="416" y="0" width="560" height="560">
<circle cx="696" cy="280" r="280" fill="white"/>
</mask>
<g mask="url(#mask0_508_4795)">
<path d="M37.4 85C48.0333 85 56.9067 88.7033 64.02 96.11C71.2067 103.443 74.8 112.573 74.8 123.5C74.8 134.427 71.2067 143.593 64.02 151C56.9067 158.333 48.0333 162 37.4 162H5.5V85H37.4ZM37.4 140.66C41.8733 140.66 45.54 139.083 48.4 135.93C51.3333 132.703 52.8 128.56 52.8 123.5C52.8 118.44 51.3333 114.333 48.4 111.18C45.54 107.953 41.8733 106.34 37.4 106.34H28.6V140.66H37.4ZM92.1886 102.82C89.1086 102.82 86.4319 101.72 84.1586 99.52C81.9586 97.2467 80.8586 94.6067 80.8586 91.6C80.8586 88.5933 81.9586 85.99 84.1586 83.79C86.4319 81.5167 89.1086 80.38 92.1886 80.38C95.1953 80.38 97.7986 81.5167 99.9986 83.79C102.272 85.99 103.409 88.5933 103.409 91.6C103.409 94.6067 102.272 97.2467 99.9986 99.52C97.7986 101.72 95.1953 102.82 92.1886 102.82ZM81.9586 162V107H102.309V162H81.9586ZM149.135 107H169.485V160.35C169.485 164.75 168.642 168.637 166.955 172.01C165.342 175.383 163.142 178.023 160.355 179.93C157.568 181.91 154.488 183.377 151.115 184.33C147.815 185.283 144.332 185.76 140.665 185.76C134.212 185.76 128.492 184.587 123.505 182.24C118.518 179.893 114.815 176.593 112.395 172.34L128.895 162.77C131.535 166.363 135.092 168.16 139.565 168.16C142.132 168.16 144.368 167.5 146.275 166.18C148.182 164.933 149.135 162.99 149.135 160.35V154.85C145.615 159.177 140.702 161.34 134.395 161.34C127.062 161.34 121.012 158.663 116.245 153.31C111.552 147.957 109.205 141.32 109.205 133.4C109.205 125.48 111.552 118.843 116.245 113.49C121.012 108.137 127.062 105.46 134.395 105.46C140.702 105.46 145.615 107.623 149.135 111.95V107ZM132.195 140.44C134.028 142.347 136.412 143.3 139.345 143.3C142.278 143.3 144.625 142.347 146.385 140.44C148.218 138.533 149.135 136.187 149.135 133.4C149.135 130.613 148.218 128.267 146.385 126.36C144.625 124.453 142.278 123.5 139.345 123.5C136.412 123.5 134.028 124.453 132.195 126.36C130.435 128.267 129.555 130.613 129.555 133.4C129.555 136.187 130.435 138.533 132.195 140.44ZM188.546 102.82C185.466 102.82 182.789 101.72 180.516 99.52C178.316 97.2467 177.216 94.6067 177.216 91.6C177.216 88.5933 178.316 85.99 180.516 83.79C182.789 81.5167 185.466 80.38 188.546 80.38C191.553 80.38 194.156 81.5167 196.356 83.79C198.629 85.99 199.766 88.5933 199.766 91.6C199.766 94.6067 198.629 97.2467 196.356 99.52C194.156 101.72 191.553 102.82 188.546 102.82ZM178.316 162V107H198.666V162H178.316ZM243.727 126.36H232.177V138.24C232.177 140.073 232.617 141.43 233.497 142.31C234.377 143.19 235.661 143.703 237.347 143.85C239.107 143.923 241.234 143.887 243.727 143.74V162C232.214 163.613 224.001 162.623 219.087 159.03C214.247 155.437 211.827 148.873 211.827 139.34V126.36H204.127V107H211.827V97.65L232.177 91.6V107H243.727V126.36ZM287.906 107H308.256V162H287.906V157.05C284.386 161.377 279.473 163.54 273.166 163.54C265.759 163.54 259.709 160.79 255.016 155.29C250.323 149.79 247.976 142.86 247.976 134.5C247.976 126.14 250.323 119.21 255.016 113.71C259.709 108.21 265.759 105.46 273.166 105.46C279.473 105.46 284.386 107.623 287.906 111.95V107ZM270.966 141.87C272.799 143.85 275.183 144.84 278.116 144.84C281.049 144.84 283.396 143.85 285.156 141.87C286.989 139.89 287.906 137.433 287.906 134.5C287.906 131.567 286.989 129.11 285.156 127.13C283.396 125.15 281.049 124.16 278.116 124.16C275.183 124.16 272.799 125.15 270.966 127.13C269.206 129.11 268.326 131.567 268.326 134.5C268.326 137.433 269.206 139.89 270.966 141.87ZM317.105 162V81.7H337.455V162H317.105ZM405.748 85H426.098V162H405.748V157.05C402.228 161.377 397.315 163.54 391.008 163.54C383.601 163.54 377.551 160.79 372.858 155.29C368.165 149.79 365.818 142.86 365.818 134.5C365.818 126.14 368.165 119.21 372.858 113.71C377.551 108.21 383.601 105.46 391.008 105.46C397.315 105.46 402.228 107.623 405.748 111.95V85ZM388.808 141.87C390.641 143.85 393.025 144.84 395.958 144.84C398.891 144.84 401.238 143.85 402.998 141.87C404.831 139.89 405.748 137.433 405.748 134.5C405.748 131.567 404.831 129.11 402.998 127.13C401.238 125.15 398.891 124.16 395.958 124.16C393.025 124.16 390.641 125.15 388.808 127.13C387.048 129.11 386.168 131.567 386.168 134.5C386.168 137.433 387.048 139.89 388.808 141.87ZM452.882 141.43C454.642 145.097 458.382 146.93 464.102 146.93C467.475 146.93 470.592 145.757 473.452 143.41L486.762 154.63C481.262 160.57 473.489 163.54 463.442 163.54C454.055 163.54 446.502 160.827 440.782 155.4C435.135 149.9 432.312 143.007 432.312 134.72C432.312 126.36 435.062 119.393 440.562 113.82C446.135 108.247 453.139 105.46 461.572 105.46C469.932 105.46 476.789 108.21 482.142 113.71C487.569 119.137 490.282 125.993 490.282 134.28C490.282 136.7 489.989 139.083 489.402 141.43H452.882ZM452.552 128.34H471.032C469.785 123.94 466.815 121.74 462.122 121.74C457.355 121.74 454.165 123.94 452.552 128.34ZM513.826 123.17C513.826 124.05 514.486 124.747 515.806 125.26C517.2 125.773 518.923 126.177 520.976 126.47C523.03 126.69 525.23 127.167 527.576 127.9C529.923 128.633 532.123 129.55 534.176 130.65C536.23 131.75 537.916 133.51 539.236 135.93C540.63 138.277 541.326 141.137 541.326 144.51C541.326 148.03 540.52 151.11 538.906 153.75C537.366 156.39 535.313 158.37 532.746 159.69C530.18 161.01 527.54 161.963 524.826 162.55C522.186 163.21 519.436 163.54 516.576 163.54C503.303 163.54 494.723 159.177 490.836 150.45L508.546 142.53C509.94 146.27 512.543 148.14 516.356 148.14C518.85 148.14 520.096 147.333 520.096 145.72C520.096 144.767 519.18 143.997 517.346 143.41C515.513 142.823 513.313 142.237 510.746 141.65C508.18 140.99 505.576 140.147 502.936 139.12C500.37 138.02 498.17 136.223 496.336 133.73C494.503 131.237 493.586 128.12 493.586 124.38C493.586 118.367 495.86 113.71 500.406 110.41C505.026 107.11 510.343 105.46 516.356 105.46C528.383 105.46 536.34 110.117 540.226 119.43L523.396 125.48C522.076 122.4 520.023 120.86 517.236 120.86C514.963 120.86 513.826 121.63 513.826 123.17ZM557.648 102.82C554.568 102.82 551.891 101.72 549.618 99.52C547.418 97.2467 546.318 94.6067 546.318 91.6C546.318 88.5933 547.418 85.99 549.618 83.79C551.891 81.5167 554.568 80.38 557.648 80.38C560.654 80.38 563.258 81.5167 565.458 83.79C567.731 85.99 568.868 88.5933 568.868 91.6C568.868 94.6067 567.731 97.2467 565.458 99.52C563.258 101.72 560.654 102.82 557.648 102.82ZM547.418 162V107H567.768V162H547.418ZM614.594 107H634.944V160.35C634.944 164.75 634.101 168.637 632.414 172.01C630.801 175.383 628.601 178.023 625.814 179.93C623.027 181.91 619.947 183.377 616.574 184.33C613.274 185.283 609.791 185.76 606.124 185.76C599.671 185.76 593.951 184.587 588.964 182.24C583.977 179.893 580.274 176.593 577.854 172.34L594.354 162.77C596.994 166.363 600.551 168.16 605.024 168.16C607.591 168.16 609.827 167.5 611.734 166.18C613.641 164.933 614.594 162.99 614.594 160.35V154.85C611.074 159.177 606.161 161.34 599.854 161.34C592.521 161.34 586.471 158.663 581.704 153.31C577.011 147.957 574.664 141.32 574.664 133.4C574.664 125.48 577.011 118.843 581.704 113.49C586.471 108.137 592.521 105.46 599.854 105.46C606.161 105.46 611.074 107.623 614.594 111.95V107ZM597.654 140.44C599.487 142.347 601.871 143.3 604.804 143.3C607.737 143.3 610.084 142.347 611.844 140.44C613.677 138.533 614.594 136.187 614.594 133.4C614.594 130.613 613.677 128.267 611.844 126.36C610.084 124.453 607.737 123.5 604.804 123.5C601.871 123.5 599.487 124.453 597.654 126.36C595.894 128.267 595.014 130.613 595.014 133.4C595.014 136.187 595.894 138.533 597.654 140.44ZM678.865 105.46C684.878 105.46 689.682 107.55 693.275 111.73C696.942 115.837 698.775 121.997 698.775 130.21V162H678.425V132.41C678.425 127.497 676.152 125.04 671.605 125.04C669.185 125.04 667.315 125.81 665.995 127.35C664.748 128.89 664.125 131.017 664.125 133.73V162H643.775V107H664.125V112.39C667.498 107.77 672.412 105.46 678.865 105.46ZM74.03 287.51L57.42 297.08L51.37 290.37C45.2833 293.963 38.5733 295.76 31.24 295.76C22.5867 295.76 15.7667 293.487 10.78 288.94C5.79333 284.32 3.3 278.6 3.3 271.78C3.3 262.98 7.44333 256.05 15.73 250.99C13.09 247.03 11.77 242.813 11.77 238.34C11.77 231.667 14.2267 226.167 19.14 221.84C24.0533 217.44 30.25 215.24 37.73 215.24C50.8567 215.24 60.2067 221.18 65.78 233.06L47.41 243.73C45.3567 238.377 42.57 235.7 39.05 235.7C35.8967 235.7 34.32 237.203 34.32 240.21C34.32 240.503 34.32 240.797 34.32 241.09C34.3933 241.383 34.5033 241.677 34.65 241.97C34.7967 242.263 34.9067 242.557 34.98 242.85C35.1267 243.07 35.3467 243.363 35.64 243.73C35.9333 244.097 36.1533 244.427 36.3 244.72C36.4467 244.94 36.7033 245.307 37.07 245.82C37.51 246.26 37.84 246.627 38.06 246.92C38.28 247.14 38.6467 247.543 39.16 248.13C39.6733 248.717 40.0767 249.157 40.37 249.45L51.92 262.54C53.46 259.313 54.56 255.903 55.22 252.31L72.38 262.32C70.6933 267.747 68.2733 272.77 65.12 277.39L74.03 287.51ZM33.88 277.5C35.5667 277.5 37.2167 277.207 38.83 276.62L28.05 264.85C26.29 266.537 25.41 268.48 25.41 270.68C25.41 272.587 26.1067 274.2 27.5 275.52C28.9667 276.84 31.0933 277.5 33.88 277.5ZM121.199 255.17C121.199 256.05 121.859 256.747 123.179 257.26C124.573 257.773 126.296 258.177 128.349 258.47C130.403 258.69 132.603 259.167 134.949 259.9C137.296 260.633 139.496 261.55 141.549 262.65C143.603 263.75 145.289 265.51 146.609 267.93C148.003 270.277 148.699 273.137 148.699 276.51C148.699 280.03 147.893 283.11 146.279 285.75C144.739 288.39 142.686 290.37 140.119 291.69C137.553 293.01 134.913 293.963 132.199 294.55C129.559 295.21 126.809 295.54 123.949 295.54C110.676 295.54 102.096 291.177 98.2094 282.45L115.919 274.53C117.313 278.27 119.916 280.14 123.729 280.14C126.223 280.14 127.469 279.333 127.469 277.72C127.469 276.767 126.553 275.997 124.719 275.41C122.886 274.823 120.686 274.237 118.119 273.65C115.553 272.99 112.949 272.147 110.309 271.12C107.743 270.02 105.543 268.223 103.709 265.73C101.876 263.237 100.959 260.12 100.959 256.38C100.959 250.367 103.233 245.71 107.779 242.41C112.399 239.11 117.716 237.46 123.729 237.46C135.756 237.46 143.713 242.117 147.599 251.43L130.769 257.48C129.449 254.4 127.396 252.86 124.609 252.86C122.336 252.86 121.199 253.63 121.199 255.17ZM181.961 295.54C173.747 295.54 166.744 292.753 160.951 287.18C155.231 281.607 152.371 274.713 152.371 266.5C152.371 258.287 155.231 251.393 160.951 245.82C166.671 240.247 173.674 237.46 181.961 237.46C190.247 237.46 197.251 240.247 202.971 245.82C208.691 251.393 211.551 258.287 211.551 266.5C211.551 274.713 208.691 281.607 202.971 287.18C197.251 292.753 190.247 295.54 181.961 295.54ZM175.251 273.54C177.011 275.3 179.247 276.18 181.961 276.18C184.674 276.18 186.874 275.3 188.561 273.54C190.321 271.707 191.201 269.36 191.201 266.5C191.201 263.64 190.321 261.33 188.561 259.57C186.874 257.737 184.674 256.82 181.961 256.82C179.247 256.82 177.011 257.737 175.251 259.57C173.564 261.33 172.721 263.64 172.721 266.5C172.721 269.36 173.564 271.707 175.251 273.54ZM248.78 233.5C246.14 233.28 244.05 233.683 242.51 234.71C241.044 235.737 240.31 237.167 240.31 239H248.78V258.36H240.31V294H219.96V258.36H213.58V239H219.96C219.96 231.08 222.417 225.03 227.33 220.85C232.244 216.597 239.394 214.727 248.78 215.24V233.5ZM291.1 258.36H279.55V270.24C279.55 272.073 279.99 273.43 280.87 274.31C281.75 275.19 283.034 275.703 284.72 275.85C286.48 275.923 288.607 275.887 291.1 275.74V294C279.587 295.613 271.374 294.623 266.46 291.03C261.62 287.437 259.2 280.873 259.2 271.34V258.36H251.5V239H259.2V229.65L279.55 223.6V239H291.1V258.36ZM362.093 239H383.543L367.593 294H346.913L340.093 268.15L333.273 294H312.593L296.643 239H318.093L324.473 269.47L332.393 239H347.793L355.713 269.47L362.093 239ZM424.869 239H445.219V294H424.869V289.05C421.349 293.377 416.436 295.54 410.129 295.54C402.722 295.54 396.672 292.79 391.979 287.29C387.286 281.79 384.939 274.86 384.939 266.5C384.939 258.14 387.286 251.21 391.979 245.71C396.672 240.21 402.722 237.46 410.129 237.46C416.436 237.46 421.349 239.623 424.869 243.95V239ZM407.929 273.87C409.762 275.85 412.146 276.84 415.079 276.84C418.012 276.84 420.359 275.85 422.119 273.87C423.952 271.89 424.869 269.433 424.869 266.5C424.869 263.567 423.952 261.11 422.119 259.13C420.359 257.15 418.012 256.16 415.079 256.16C412.146 256.16 409.762 257.15 407.929 259.13C406.169 261.11 405.289 263.567 405.289 266.5C405.289 269.433 406.169 271.89 407.929 273.87ZM474.418 249.67C475.445 245.93 477.461 243.033 480.468 240.98C483.475 238.927 486.958 237.9 490.918 237.9V259.9C486.518 259.313 482.668 260.193 479.368 262.54C476.068 264.813 474.418 268.48 474.418 273.54V294H454.068V239H474.418V249.67ZM514.005 273.43C515.765 277.097 519.505 278.93 525.225 278.93C528.598 278.93 531.715 277.757 534.575 275.41L547.885 286.63C542.385 292.57 534.612 295.54 524.565 295.54C515.178 295.54 507.625 292.827 501.905 287.4C496.258 281.9 493.435 275.007 493.435 266.72C493.435 258.36 496.185 251.393 501.685 245.82C507.258 240.247 514.262 237.46 522.695 237.46C531.055 237.46 537.912 240.21 543.265 245.71C548.692 251.137 551.405 257.993 551.405 266.28C551.405 268.7 551.112 271.083 550.525 273.43H514.005ZM513.675 260.34H532.155C530.908 255.94 527.938 253.74 523.245 253.74C518.478 253.74 515.288 255.94 513.675 260.34ZM616.939 239H637.289V294H616.939V289.05C613.419 293.377 608.506 295.54 602.199 295.54C594.793 295.54 588.743 292.79 584.049 287.29C579.356 281.79 577.009 274.86 577.009 266.5C577.009 258.14 579.356 251.21 584.049 245.71C588.743 240.21 594.793 237.46 602.199 237.46C608.506 237.46 613.419 239.623 616.939 243.95V239ZM599.999 273.87C601.833 275.85 604.216 276.84 607.149 276.84C610.083 276.84 612.429 275.85 614.189 273.87C616.023 271.89 616.939 269.433 616.939 266.5C616.939 263.567 616.023 261.11 614.189 259.13C612.429 257.15 610.083 256.16 607.149 256.16C604.216 256.16 601.833 257.15 599.999 259.13C598.239 261.11 597.359 263.567 597.359 266.5C597.359 269.433 598.239 271.89 599.999 273.87ZM684.203 239H704.553V292.35C704.553 296.75 703.71 300.637 702.023 304.01C700.41 307.383 698.21 310.023 695.423 311.93C692.637 313.91 689.557 315.377 686.183 316.33C682.883 317.283 679.4 317.76 675.733 317.76C669.28 317.76 663.56 316.587 658.573 314.24C653.587 311.893 649.883 308.593 647.463 304.34L663.963 294.77C666.603 298.363 670.16 300.16 674.633 300.16C677.2 300.16 679.437 299.5 681.343 298.18C683.25 296.933 684.203 294.99 684.203 292.35V286.85C680.683 291.177 675.77 293.34 669.463 293.34C662.13 293.34 656.08 290.663 651.313 285.31C646.62 279.957 644.273 273.32 644.273 265.4C644.273 257.48 646.62 250.843 651.313 245.49C656.08 240.137 662.13 237.46 669.463 237.46C675.77 237.46 680.683 239.623 684.203 243.95V239ZM667.263 272.44C669.097 274.347 671.48 275.3 674.413 275.3C677.347 275.3 679.693 274.347 681.453 272.44C683.287 270.533 684.203 268.187 684.203 265.4C684.203 262.613 683.287 260.267 681.453 258.36C679.693 256.453 677.347 255.5 674.413 255.5C671.48 255.5 669.097 256.453 667.263 258.36C665.503 260.267 664.623 262.613 664.623 265.4C664.623 268.187 665.503 270.533 667.263 272.44ZM731.32 273.43C733.08 277.097 736.82 278.93 742.54 278.93C745.913 278.93 749.03 277.757 751.89 275.41L765.2 286.63C759.7 292.57 751.926 295.54 741.88 295.54C732.493 295.54 724.94 292.827 719.22 287.4C713.573 281.9 710.75 275.007 710.75 266.72C710.75 258.36 713.5 251.393 719 245.82C724.573 240.247 731.576 237.46 740.01 237.46C748.37 237.46 755.226 240.21 760.58 245.71C766.006 251.137 768.72 257.993 768.72 266.28C768.72 268.7 768.426 271.083 767.84 273.43H731.32ZM730.99 260.34H749.47C748.223 255.94 745.253 253.74 740.56 253.74C735.793 253.74 732.603 255.94 730.99 260.34ZM809.812 237.46C815.826 237.46 820.629 239.55 824.222 243.73C827.889 247.837 829.722 253.997 829.722 262.21V294H809.372V264.41C809.372 259.497 807.099 257.04 802.552 257.04C800.132 257.04 798.262 257.81 796.942 259.35C795.696 260.89 795.072 263.017 795.072 265.73V294H774.722V239H795.072V244.39C798.446 239.77 803.359 237.46 809.812 237.46ZM864.729 295.54C856.296 295.54 849.292 292.79 843.719 287.29C838.146 281.717 835.359 274.787 835.359 266.5C835.359 258.213 838.146 251.32 843.719 245.82C849.292 240.247 856.296 237.46 864.729 237.46C870.156 237.46 875.106 238.78 879.579 241.42C884.126 243.987 887.609 247.47 890.029 251.87L872.869 261.66C871.036 258.58 868.322 257.04 864.729 257.04C862.162 257.04 859.999 257.957 858.239 259.79C856.552 261.55 855.709 263.787 855.709 266.5C855.709 269.213 856.552 271.487 858.239 273.32C859.999 275.08 862.162 275.96 864.729 275.96C868.542 275.96 871.256 274.383 872.869 271.23L890.029 281.13C887.609 285.603 884.126 289.123 879.579 291.69C875.106 294.257 870.156 295.54 864.729 295.54ZM930.235 239H953.335L934.635 293.89C931.921 301.883 927.705 307.64 921.985 311.16C916.265 314.753 908.711 316.367 899.325 316V296.75C903.065 296.75 905.925 296.457 907.905 295.87C909.885 295.357 911.461 294.367 912.635 292.9L890.635 239H913.735L923.525 268.37L930.235 239ZM40.7 390.36H29.15V402.24C29.15 404.073 29.59 405.43 30.47 406.31C31.35 407.19 32.6333 407.703 34.32 407.85C36.08 407.923 38.2067 407.887 40.7 407.74V426C29.1867 427.613 20.9733 426.623 16.06 423.03C11.22 419.437 8.8 412.873 8.8 403.34V390.36H1.1V371H8.8V361.65L29.15 355.6V371H40.7V390.36ZM82.9959 369.46C89.0092 369.46 93.8125 371.55 97.4059 375.73C101.073 379.837 102.906 385.997 102.906 394.21V426H82.5559V396.41C82.5559 391.497 80.2825 389.04 75.7359 389.04C73.3159 389.04 71.4459 389.81 70.1259 391.35C68.8792 392.89 68.2559 395.017 68.2559 397.73V426H47.9059V349H68.2559V376.39C71.6292 371.77 76.5425 369.46 82.9959 369.46ZM148.473 371H168.823V426H148.473V421.05C144.953 425.377 140.039 427.54 133.733 427.54C126.326 427.54 120.276 424.79 115.583 419.29C110.889 413.79 108.543 406.86 108.543 398.5C108.543 390.14 110.889 383.21 115.583 377.71C120.276 372.21 126.326 369.46 133.733 369.46C140.039 369.46 144.953 371.623 148.473 375.95V371ZM131.533 405.87C133.366 407.85 135.749 408.84 138.683 408.84C141.616 408.84 143.963 407.85 145.723 405.87C147.556 403.89 148.473 401.433 148.473 398.5C148.473 395.567 147.556 393.11 145.723 391.13C143.963 389.15 141.616 388.16 138.683 388.16C135.749 388.16 133.366 389.15 131.533 391.13C129.773 393.11 128.893 395.567 128.893 398.5C128.893 401.433 129.773 403.89 131.533 405.87ZM213.971 390.36H202.421V402.24C202.421 404.073 202.861 405.43 203.741 406.31C204.621 407.19 205.905 407.703 207.591 407.85C209.351 407.923 211.478 407.887 213.971 407.74V426C202.458 427.613 194.245 426.623 189.331 423.03C184.491 419.437 182.071 412.873 182.071 403.34V390.36H174.371V371H182.071V361.65L202.421 355.6V371H213.971V390.36ZM306.986 371H328.436L312.486 426H291.806L284.986 400.15L278.166 426H257.486L241.536 371H262.986L269.366 401.47L277.286 371H292.686L300.606 401.47L306.986 371ZM359.422 427.54C351.208 427.54 344.205 424.753 338.412 419.18C332.692 413.607 329.832 406.713 329.832 398.5C329.832 390.287 332.692 383.393 338.412 377.82C344.132 372.247 351.135 369.46 359.422 369.46C367.708 369.46 374.712 372.247 380.432 377.82C386.152 383.393 389.012 390.287 389.012 398.5C389.012 406.713 386.152 413.607 380.432 419.18C374.712 424.753 367.708 427.54 359.422 427.54ZM352.712 405.54C354.472 407.3 356.708 408.18 359.422 408.18C362.135 408.18 364.335 407.3 366.022 405.54C367.782 403.707 368.662 401.36 368.662 398.5C368.662 395.64 367.782 393.33 366.022 391.57C364.335 389.737 362.135 388.82 359.422 388.82C356.708 388.82 354.472 389.737 352.712 391.57C351.025 393.33 350.182 395.64 350.182 398.5C350.182 401.36 351.025 403.707 352.712 405.54ZM415.766 381.67C416.792 377.93 418.809 375.033 421.816 372.98C424.822 370.927 428.306 369.9 432.266 369.9V391.9C427.866 391.313 424.016 392.193 420.716 394.54C417.416 396.813 415.766 400.48 415.766 405.54V426H395.416V371H415.766V381.67ZM494.377 426H471.827L458.627 404V426H438.277V349H458.627V392.34L470.177 371H493.277L476.557 398.5L494.377 426ZM515.115 387.17C515.115 388.05 515.775 388.747 517.095 389.26C518.489 389.773 520.212 390.177 522.265 390.47C524.319 390.69 526.519 391.167 528.865 391.9C531.212 392.633 533.412 393.55 535.465 394.65C537.519 395.75 539.205 397.51 540.525 399.93C541.919 402.277 542.615 405.137 542.615 408.51C542.615 412.03 541.809 415.11 540.195 417.75C538.655 420.39 536.602 422.37 534.035 423.69C531.469 425.01 528.829 425.963 526.115 426.55C523.475 427.21 520.725 427.54 517.865 427.54C504.592 427.54 496.012 423.177 492.125 414.45L509.835 406.53C511.229 410.27 513.832 412.14 517.645 412.14C520.139 412.14 521.385 411.333 521.385 409.72C521.385 408.767 520.469 407.997 518.635 407.41C516.802 406.823 514.602 406.237 512.035 405.65C509.469 404.99 506.865 404.147 504.225 403.12C501.659 402.02 499.459 400.223 497.625 397.73C495.792 395.237 494.875 392.12 494.875 388.38C494.875 382.367 497.149 377.71 501.695 374.41C506.315 371.11 511.632 369.46 517.645 369.46C529.672 369.46 537.629 374.117 541.515 383.43L524.685 389.48C523.365 386.4 521.312 384.86 518.525 384.86C516.252 384.86 515.115 385.63 515.115 387.17Z" fill="#F8F9F9"/>
</g>
<circle cx="1029.5" cy="446.5" r="21.5" fill="#171717"/>
<circle cx="571" cy="413" r="12.5" fill="#FFD84E" stroke="#FFD84E"/>
<circle cx="1125.5" cy="118.5" r="64.5" fill="#171717"/>
<circle cx="1194" cy="205" r="21.5" fill="#FFD84E" stroke="#FFD84E"/>
</svg>
