<svg width="73" height="100" viewBox="0 0 73 100" fill="none" xmlns="http://www.w3.org/2000/svg">
<path d="M36.6092 47.4008C36.6092 57.5101 28.4139 65.7054 18.3046 65.7054C8.19524 65.7054 0 57.5101 0 47.4008C0 37.2914 8.19524 29.0962 18.3046 29.0962C28.4139 29.0962 36.6092 37.2914 36.6092 47.4008Z" fill="#171717"/>
<path fill-rule="evenodd" clip-rule="evenodd" d="M51.4629 60.2166C53.1997 56.0235 54.0936 51.5295 54.0936 46.991H72.3982C72.3982 53.9333 71.0308 60.8076 68.3741 67.2214C65.7174 73.6353 61.8234 79.463 56.9145 84.372C52.0055 89.2809 46.1778 93.1749 39.7639 95.8316C33.3501 98.4883 26.4757 99.8557 19.5334 99.8557L19.5334 81.5511C24.0719 81.5511 28.566 80.6572 32.759 78.9204C36.9521 77.1836 40.762 74.6379 43.9712 71.4287C47.1804 68.2195 49.7261 64.4096 51.4629 60.2166Z" fill="#FFD84E"/>
<path d="M71.7154 8.46929C71.7154 13.1467 67.9236 16.9386 63.2461 16.9386C58.5687 16.9386 54.7769 13.1467 54.7769 8.46929C54.7769 3.79183 58.5687 0 63.2461 0C67.9236 0 71.7154 3.79183 71.7154 8.46929Z" fill="#171717"/>
</svg>
