<svg width="22" height="22" viewBox="0 0 22 22" fill="none" xmlns="http://www.w3.org/2000/svg">
<path fill-rule="evenodd" clip-rule="evenodd" d="M2.00036 10.919C2.00012 10.9459 2 10.973 2 11C2 13.211 2.7973 15.2358 4.12009 16.8026C6.23128 13.9943 8.40295 12.1954 10.7388 11.1875L10.1691 9.93038C7.77711 10.5314 5.0704 10.8164 2.00036 10.919ZM2.24418 8.90896C4.95784 8.80591 7.29492 8.55255 9.329 8.07642L6.99946 2.93579C4.64 4.10854 2.86819 6.28631 2.24418 8.90896ZM8.88448 2.25004L11.2729 7.52057C13.4582 6.76806 15.2506 5.6669 16.7735 4.09561C15.2108 2.78748 13.1974 2 11 2C10.2714 2 9.56295 2.08659 8.88448 2.25004ZM18.1567 5.54203C16.4329 7.30423 14.4334 8.52182 12.1017 9.34958L12.6471 10.553C14.7469 10.0533 17.2674 10.0418 19.9925 10.6294C19.9152 8.7203 19.2432 6.96443 18.1567 5.54203ZM19.8497 12.6466C17.4289 12.0876 15.2555 12.0645 13.4911 12.4157L16.184 18.358C18.0654 17.03 19.4148 14.9987 19.8497 12.6466ZM14.4263 19.3248L11.5645 13.0096C9.56695 13.8636 7.59912 15.4561 5.58238 18.1874C7.08958 19.3253 8.96599 20 11 20C12.2131 20 13.3702 19.76 14.4263 19.3248ZM0 11C0 4.92487 4.92487 0 11 0C17.0751 0 22 4.92487 22 11C22 17.0751 17.0751 22 11 22C4.92487 22 0 17.0751 0 11Z" fill="#F7F7F6" fill-opacity="0.5"/>
</svg>
