<svg width="32" height="32" viewBox="0 0 32 32" fill="none" xmlns="http://www.w3.org/2000/svg">
<path d="M16 8.00008C16 7.2637 16.5969 6.66675 17.3333 6.66675H28C28.7364 6.66675 29.3333 7.2637 29.3333 8.00008C29.3333 8.73646 28.7364 9.33341 28 9.33341H17.3333C16.5969 9.33341 16 8.73646 16 8.00008Z" fill="#171717"/>
<path d="M2.66666 16.0001C2.66666 15.2637 3.26361 14.6667 3.99999 14.6667H28C28.7364 14.6667 29.3333 15.2637 29.3333 16.0001C29.3333 16.7365 28.7364 17.3334 28 17.3334H3.99999C3.26361 17.3334 2.66666 16.7365 2.66666 16.0001Z" fill="#171717"/>
<path d="M10.6667 24.0001C10.6667 23.2637 11.2636 22.6667 12 22.6667H28C28.7364 22.6667 29.3333 23.2637 29.3333 24.0001C29.3333 24.7365 28.7364 25.3334 28 25.3334H12C11.2636 25.3334 10.6667 24.7365 10.6667 24.0001Z" fill="#171717"/>
</svg>
